<?xml version="1.0" encoding="utf-8"?>
<!-- Generator: Adobe Illustrator 25.3.1, SVG Export Plug-In . SVG Version: 6.00 Build 0)  -->
<svg version="1.1" id="レイヤー_1" xmlns="http://www.w3.org/2000/svg" xmlns:xlink="http://www.w3.org/1999/xlink" x="0px"
	 y="0px" viewBox="0 0 167.4 76.1" style="enable-background:new 0 0 167.4 76.1;" xml:space="preserve">
<style type="text/css">
	.st0{fill:#FFFFFF;}
</style>
<path id="パス_16" class="st0" d="M55.4,65.1h18.9v8.2H46.6l3.6-49.1H29.6L19.4,73.4h-8.2l10-49.2H0V16h22.9l3.4-16h8.3l-3.3,16.1
	h27.6L55.4,65.1z"/>
<path id="パス_17" class="st0" d="M147.4,5.7h20v7.5h-20v5.5h-7.5v-5.5h-19.2v5.5h-7.6v-5.5h-20V5.7h20V0h7.5v5.7h19.2V0h7.5
	L147.4,5.7L147.4,5.7z M95.9,47.6v-7.5h68.7v7.5h-39.2l-9.2,17L149,63l-3.4-8h8.1l9.2,21.1h-8.1l-2.6-5.8l-49,2.7l13.5-25.4H95.9z
	 M104.1,24.2h52.2v7.5h-52.2V24.2z"/>
</svg>
