<?xml version="1.0" encoding="utf-8"?>
<!-- Generator: Adobe Illustrator 25.2.3, SVG Export Plug-In . SVG Version: 6.00 Build 0)  -->
<svg version="1.1" id="レイヤー_1" xmlns="http://www.w3.org/2000/svg" xmlns:xlink="http://www.w3.org/1999/xlink" x="0px"
	 y="0px" viewBox="0 0 426.05 108.61" style="enable-background:new 0 0 426.05 108.61;" xml:space="preserve">
<style type="text/css">
	.st0{fill:#0C0C0C;}
</style>
<g>
	<g>
		<path class="st0" d="M374.47,80.1c0-2.45,1.83-4.22,4.34-4.22c2.38,0,4.16,1.71,4.16,4.1c0,2.57-1.84,4.1-4.46,4.1
			C376.18,84.07,374.47,82.42,374.47,80.1z"/>
		<path class="st0" d="M65.49,60.37c0-1.87,1.13-2.84,3.17-2.84c1.59,0,2.49,0.91,2.72,2.38l0.11,1.99
			c1.42-2.95,4.88-4.48,7.71-4.48c3.86,0,6.58,2.16,7.65,4.99c1.59-2.78,4.76-4.93,8.45-4.99c6.92-0.06,9.64,4.76,9.64,11.06v5.73
			c0,2.32-0.06,4.65-0.11,7.43c-0.11,1.98-1.87,2.44-3.17,2.44c-1.76,0-3.06-0.91-3.06-2.49c0.06-2.95,0.23-7.43,0.23-12.13
			c0-3.74-1.13-6.58-4.59-6.58c-3.23,0-5.61,2.16-5.73,6.12c-0.06,2.16-0.06,3.29-0.06,6.01c0,1.59,0,3.8,0,5.9
			c-0.06,1.99-1.13,3.18-3.29,3.18c-1.64-0.06-2.89-0.91-2.89-2.61c0.06-4.99,0.17-6.64,0.11-12.65c-0.11-3.23-1.53-6.01-4.76-6.01
			c-4.37,0-6.01,3.46-6.01,8.34l0.06,10.49c-0.06,1.76-1.53,2.44-3.23,2.44c-1.47,0-3.01-0.68-3.01-2.61c0-0.85-0.06-1.3,0-3.06
			l0.17-8.51C65.6,62.52,65.49,61.44,65.49,60.37z"/>
		<path class="st0" d="M158.18,61.22c-0.06-2.32,0.74-3.63,3.18-3.63c1.93,0,2.61,0.91,2.78,2.78l0.11,1.99
			c1.3-3.12,4.93-4.93,8.45-4.93c6.29,0,9.81,4.14,9.81,11.17c0,2.32-0.06,3.52-0.06,7.31v4.88c0,2.27-1.19,3.17-3.34,3.17
			c-1.64,0-2.95-0.85-2.95-2.72c0-3.23,0.17-7.31,0.17-10.89c-0.06-3.86-0.85-7.48-5.16-7.48c-5.9-0.06-6.86,4.37-6.86,9.64
			l0.06,8.9c0,2.04-1.7,2.66-3.12,2.66c-1.76,0-3.12-0.62-3.12-2.72c0-3.4,0.17-6.8,0.11-15.14L158.18,61.22z"/>
		<path class="st0" d="M257.1,79.25c0.51,0.62,0.79,1.13,0.79,1.81c0,1.3-1.47,3.01-3.23,3.01c-1.02,0-1.81-0.68-2.66-1.76
			l-7.71-9.36c-0.57,0.51-1.93,1.81-2.44,2.32l-0.06,5.56c0,1.99-0.74,3.23-3.01,3.23c-2.16,0-3.12-1.19-3.06-3.35l0.11-6.24
			c0-8.5-0.06-16.22-0.06-24.89c0-1.02,0-2.44-0.06-3.63c0-1.98,1.53-2.89,3.18-2.89c2.04,0,3.12,0.96,3.12,3.06
			c0,7.54-0.11,14.97-0.17,22.52l9.53-9.75c0.91-0.96,1.76-1.53,2.72-1.53c1.47,0,3.06,1.59,3.06,3.01c0,0.74-0.45,1.42-1.13,2.16
			c-2.16,2.16-5.56,5.27-7.54,7.14L257.1,79.25z"/>
		<path class="st0" d="M294.11,74.03c0,2.44,0.06,4.82,0.23,7.26c0,2.04-1.47,2.61-3.23,2.61c-1.87,0-2.38-1.3-2.72-4.37
			c-1.7,2.95-4.71,4.54-8.39,4.54c-7.54,0-12.3-5.67-12.3-12.59c0-8.28,5.67-14.01,13.04-14.01c3.17,0,6.07,1.42,7.77,3.97
			c0.06-0.68,0.17-1.59,0.34-2.1c0.34-1.08,1.14-1.76,2.44-1.76c2.27,0,2.95,1.3,2.95,3.46L294.11,74.03z M280.78,78.74
			c4.2,0,7.43-3.18,7.43-8c0-5.16-3.46-7.94-7.14-7.94c-4.08,0-7.09,3.46-7.09,8.51C273.98,75.62,276.99,78.74,280.78,78.74z"/>
		<path class="st0" d="M310.49,57.7c1.3,0,2.15,0.68,2.38,2.04l0.23,3.12c1.64-3.57,4.88-5.39,7.71-5.39c1.99,0,3.01,0.85,3.01,2.95
			c0,1.47-0.74,2.95-2.55,2.95c-0.45,0-0.62,0-0.96,0c-3.74,0-6.86,3.29-6.86,8.96c0,2.84,0.11,5.95,0.06,9.13
			c-0.06,1.87-1.36,2.61-3.18,2.61c-1.93,0-3.06-0.79-3.01-3.46c0.06-4.37,0.17-9.92,0.17-13.95c0-1.93-0.11-4.03-0.11-6.01
			S308.56,57.7,310.49,57.7z"/>
		<path class="st0" d="M360.92,74.03c0,2.44,0.06,4.82,0.23,7.26c0,2.04-1.47,2.61-3.23,2.61c-1.87,0-2.38-1.3-2.72-4.37
			c-1.7,2.95-4.71,4.54-8.39,4.54c-7.54,0-12.3-5.67-12.3-12.59c0-8.28,5.67-14.01,13.04-14.01c3.17,0,6.07,1.42,7.77,3.97
			c0.06-0.68,0.17-1.59,0.34-2.1c0.34-1.08,1.13-1.76,2.44-1.76c2.27,0,2.95,1.3,2.95,3.46L360.92,74.03z M347.59,78.74
			c4.2,0,7.43-3.18,7.43-8c0-5.16-3.46-7.94-7.15-7.94c-4.08,0-7.09,3.46-7.09,8.51C340.79,75.62,343.79,78.74,347.59,78.74z"/>
		<path class="st0" d="M170.95,108.61c-0.01,0-0.02,0-0.03,0c-10.47-0.01-18.14-7.23-18.46-7.54c-1.16-1.11-1.16-2.91,0.01-4.01
			c1.16-1.1,3.05-1.1,4.21,0l0,0c0.56,0.53,13.9,12.85,27.4,0c1.16-1.11,3.05-1.11,4.21,0c1.16,1.11,1.16,2.9,0,4.01
			C183.04,106.08,177.2,108.61,170.95,108.61z"/>
		<path class="st0" d="M209.13,57.42c-7.36,0-13.33,5.97-13.33,13.33s5.97,13.33,13.33,13.33s13.33-5.97,13.33-13.33
			S216.49,57.42,209.13,57.42z M209.13,78.77c-3.91,0-7.08-3.59-7.08-8.02s3.17-8.02,7.08-8.02c3.91,0,7.08,3.59,7.08,8.02
			S213.05,78.77,209.13,78.77z"/>
		<path class="st0" d="M131.54,57.42c-7.36,0-13.33,5.97-13.33,13.33s5.97,13.33,13.33,13.33c7.36,0,13.33-5.97,13.33-13.33
			S138.9,57.42,131.54,57.42z M131.54,78.77c-3.91,0-7.08-3.59-7.08-8.02s3.17-8.02,7.08-8.02c3.91,0,7.08,3.59,7.08,8.02
			S135.45,78.77,131.54,78.77z"/>
	</g>
	<g>
		<path class="st0" d="M4.19,4.34C3.42,4.55,2.89,4.66,2.38,4.66c-0.7,0-1.45-0.15-1.45-0.68c0-0.27,0.17-0.51,0.48-0.51
			c0.08,0,0.15,0.02,0.25,0.06c0.32,0.11,0.63,0.17,0.93,0.17c0.51,0,0.76-0.06,1.9-0.4c0.72-2.7,0.89-2.7,1.24-2.7
			c0.25,0,0.49,0.19,0.49,0.46c0,0.06-0.02,0.13-0.04,0.19C5.95,1.83,5.71,2.38,5.52,2.91c0.89-0.34,1.85-0.78,2.47-1.1
			C8.1,1.75,8.2,1.73,8.29,1.73c0.29,0,0.48,0.21,0.48,0.46c0,0.21-0.11,0.44-0.42,0.57C7.42,3.2,6.24,3.67,5.29,3.99
			c-0.17,0.82-0.3,1.69-0.36,2.57C5.5,6.3,6.03,6.07,6.58,5.92c0.04-0.23,0.27-0.34,0.49-0.34c0.13,0,0.29,0.06,0.38,0.15
			C7.78,5.67,8.1,5.65,8.43,5.65c2.38,0,4.87,1.45,4.87,4.11c0,4.07-5.42,6.09-5.86,6.09c-0.34,0-0.59-0.25-0.59-0.51
			c0-0.19,0.13-0.38,0.46-0.49c2.97-0.95,4.93-3.16,4.93-5.16c0-1.69-1.6-3.23-3.86-3.23c-0.21,0-0.42,0.02-0.65,0.04
			c0.02,0.13,0.02,0.27,0.02,0.4c0,1.77-1.24,3.41-2.07,4.24c0.08,0.11,0.15,0.23,0.25,0.34c0.13,0.17,0.19,0.34,0.19,0.49
			c0,0.32-0.23,0.59-0.49,0.59c-0.23,0-0.42-0.15-0.72-0.68c-2.28,2.11-2.78,2.26-3.33,2.26c-0.87,0-1.56-0.8-1.56-1.94
			c0-1.01,0.97-3.33,4.01-5.16c0.02-0.89,0.13-1.83,0.3-2.74L4.19,4.34z M4.01,8.01c-0.95,0.55-2.99,2.53-2.99,4.03
			c0,0.74,0.3,0.95,0.65,0.95c0.53,0,1.33-0.48,2.85-1.96C4.22,10.16,4.05,9.13,4.01,8.01z M4.89,7.48c0,1.01,0.11,1.98,0.38,2.78
			C5.8,9.66,6.73,8.64,6.73,7.08c0-0.13,0-0.25-0.02-0.38C6.11,6.87,5.5,7.13,4.89,7.48z"/>
		<path class="st0" d="M35.74,4.74c-0.86,0-1.07-0.32-1.07-0.59c0-0.25,0.17-0.48,0.48-0.48c0.1,0,0.17,0,0.27,0.04
			c0.15,0.06,0.3,0.08,0.48,0.08c0.57,0,1.1-0.17,2.97-0.99c0.13-0.59,0.17-1.24,0.19-1.9c0-0.3,0.27-0.46,0.51-0.46
			c0.13,0,0.53,0.04,0.53,0.57c0,0.38-0.08,0.88-0.17,1.31c0.19-0.11,0.4-0.23,0.67-0.44c0.1-0.08,0.21-0.11,0.32-0.11
			c0.23,0,0.44,0.17,0.44,0.42c0,0.46-0.7,0.84-1.67,1.28c-0.95,2.42-2.47,5-3.8,7.27c-0.15,0.27-0.4,0.38-0.63,0.38
			c-0.25,0-0.48-0.15-0.48-0.42c0-0.13,0.04-0.27,0.15-0.44c1.41-2.13,2.64-4.07,3.6-6.37C37.61,4.3,36.64,4.74,35.74,4.74z
			 M42.86,13.73c-0.25,1.16-1.66,2.21-3.22,2.21c-1.5,0-2.8-1.01-2.8-2c0-1.18,1.62-1.83,3.25-1.83c0.61,0,1.24,0.08,1.83,0.21
			c-0.02-0.46-0.1-0.91-0.15-1.41c-0.04-0.38-0.08-0.74-0.08-1.07c0-1.65,0.65-2.62,2.64-3.86c0.29-0.17,0.46-0.3,0.46-0.38
			c0-0.19-0.76-0.23-0.84-0.23c-0.51,0-1.08,0.13-1.67,0.25c-0.04,0-0.08,0.02-0.11,0.02c-0.25,0-0.42-0.21-0.42-0.42
			c0-0.21,0.15-0.42,0.51-0.49c0.63-0.11,1.18-0.17,1.67-0.17c1.94,0,2.91,0.86,2.91,1.31c0,0.27-0.21,0.46-0.57,0.46
			c-0.04,0-0.08,0-0.11,0c-0.04,0-0.08,0-0.11,0c-0.42,0-0.93,0.17-1.33,0.4c-1.46,0.84-2.11,1.6-2.11,3.04
			c0,0.32,0.02,0.7,0.1,1.12c0.08,0.48,0.17,1.1,0.21,1.69c0.67,0.23,3.01,1.18,3.01,2c0,0.3-0.23,0.57-0.51,0.57
			c-0.11,0-0.27-0.06-0.4-0.19c-0.49-0.49-1.27-1.01-2.13-1.39C42.88,13.64,42.88,13.68,42.86,13.73z M39.91,12.94
			c-1.16,0-2.11,0.46-2.11,1.01c0,0.44,0.78,1.07,1.83,1.07c1.1,0,2.13-0.69,2.26-1.6c0-0.06,0.02-0.11,0.02-0.17
			C41.26,13.07,40.57,12.94,39.91,12.94z"/>
		<path class="st0" d="M73.84,4.72c-1.77,4.95-3.2,7.46-4.45,10.12c-0.11,0.23-0.34,0.34-0.57,0.34c-0.3,0-0.59-0.17-0.59-0.48
			c0-0.09,0.04-0.21,0.1-0.32c1.07-1.94,2.76-4.93,4.41-9.44l0.02-0.08c-0.17,0.06-1.56,0.48-2.42,0.48c-0.27,0-1.35-0.02-1.35-0.63
			c0-0.27,0.19-0.55,0.51-0.55c0.1,0,0.21,0.04,0.34,0.09c0.19,0.09,0.4,0.13,0.63,0.13c0.15,0,1.05-0.02,2.64-0.63
			c0.17-0.61,0.23-1.14,0.23-1.9c0-0.34,0.29-0.51,0.57-0.51c0.51,0,0.55,0.42,0.55,0.68c0,0.36-0.06,0.78-0.17,1.2
			c0.21-0.11,0.42-0.25,0.57-0.36c0.11-0.1,0.25-0.13,0.36-0.13c0.29,0,0.51,0.21,0.51,0.48c0,0.19-0.11,0.57-1.81,1.26L73.84,4.72z
			 M81,14.76c0,0.55-0.61,0.55-0.89,0.55c-3.27,0-4.91-1.79-4.91-2.38c0-0.32,0.27-0.57,0.55-0.57c0.17,0,0.34,0.1,0.46,0.3
			c0.82,1.41,2.59,1.48,4.19,1.54C80.79,14.21,81,14.5,81,14.76z M81.62,8.14c-0.08,0-0.15,0-0.23-0.04
			c-0.95-0.36-2.42-0.89-3.6-0.89c-0.27,0-0.51,0.04-0.74,0.1c-0.04,0.02-0.08,0.02-0.11,0.02c-0.25,0-0.4-0.23-0.4-0.46
			c0-0.27,0.19-0.61,1.31-0.61c1.05,0,2.49,0.3,3.94,0.87c0.27,0.1,0.38,0.3,0.38,0.48C82.18,7.89,81.95,8.14,81.62,8.14z"/>
		<path class="st0" d="M109.68,15.05c-0.4,0-0.63-0.27-0.63-0.55c0-0.25,0.19-0.48,0.61-0.55c4.3-0.67,6.07-3.39,6.07-5.67
			c0-2.32-1.85-4.32-4.87-4.32c-0.29,0-0.59,0.02-0.89,0.06c-2.15,0.21-5.4,2.76-5.4,5.74c0,0.95,0.36,2.17,1.2,2.17
			c0.21,0,0.44-0.11,0.68-0.32c0.53-0.48,3.33-3.63,3.33-6.58c0-0.06,0-0.13,0-0.19c0-0.02,0-0.04,0-0.04
			c0-0.42,0.25-0.59,0.51-0.59c0.63,0,0.67,0.51,0.67,0.84c0,2.43-2.38,5.92-3.88,7.4c-0.44,0.44-0.89,0.63-1.33,0.63
			c-1.18,0-2.19-1.46-2.19-3.23c0-3.23,3.18-6.77,7.38-6.77c3.69,0,5.95,2.51,5.95,5.31C116.89,13.18,111.09,15.05,109.68,15.05z"/>
		<path class="st0" d="M138.31,14.8c0-0.15,0.08-0.3,0.29-0.42c0.72-0.4,1.85-1.75,2.11-2.7c0.08-0.23,0.25-0.34,0.44-0.34
			c0.27,0,0.55,0.21,0.55,0.48c0,0.82-1.86,3.5-2.83,3.5C138.53,15.31,138.31,15.07,138.31,14.8z M149.8,8.45
			c-1.16,0.04-2.49,0.08-3.79,0.08s-2.55-0.04-3.6-0.08c-1.35-0.06-2.04-0.69-2.09-1.77c-0.02-0.55-0.04-1.24-0.04-1.92
			c0-0.84,0.02-1.67,0.04-2.34c0.04-1.07,0.7-1.79,2.15-1.83c1.1-0.04,2.42-0.04,3.73-0.04c1.33,0,2.64,0,3.77,0.04
			c1.31,0.04,2.04,0.68,2.09,1.79c0.04,0.59,0.06,1.45,0.06,2.26c0,0.61-0.02,1.2-0.04,1.69C152.02,7.65,151.32,8.39,149.8,8.45z
			 M145.69,1.39c-1.14,0-2.24,0.04-3.14,0.06c-1.31,0.04-1.31,0.93-1.31,2.61h4.45V1.39z M145.69,4.85h-4.45
			c0,0.53,0.02,1.07,0.04,1.52c0.02,0.8,0.48,1.2,1.33,1.24c0.95,0.04,2,0.08,3.08,0.08V4.85z M144.16,10.61
			c-0.02,0.68-0.04,1.98-0.04,2.78c0,1.41,0.06,1.75,2.43,1.75c2.19,0,2.83-0.44,2.89-1.79c0-0.32,0.25-0.46,0.49-0.46
			c0.27,0,0.55,0.17,0.55,0.48c0,2.61-2.24,2.68-4.15,2.68c-1.39,0-3.23,0-3.23-2.02c0-0.84,0-2.55,0.04-3.44
			c0-0.27,0.27-0.4,0.51-0.4c0.25,0,0.49,0.13,0.49,0.4V10.61z M147.91,11.76c-0.61-0.69-1.67-1.39-2.43-1.73
			c-0.15-0.08-0.23-0.21-0.23-0.34c0-0.21,0.19-0.44,0.48-0.44c0.38,0,3.08,1.39,3.08,2.13c0,0.3-0.25,0.57-0.53,0.57
			C148.16,11.95,148.03,11.89,147.91,11.76z M151.15,4.05c0-1.71,0-2.55-1.37-2.61c-0.86-0.04-1.98-0.06-3.12-0.06v2.66H151.15z
			 M146.66,4.85v2.83c1.05,0,2.09-0.04,3.06-0.08c1.37-0.06,1.43-0.97,1.43-2.76H146.66z M153.64,14.29
			c-0.67-1.03-1.56-1.88-2.66-2.53c-0.13-0.08-0.19-0.19-0.19-0.3c0-0.25,0.23-0.48,0.51-0.48c0.59,0,3.35,2.15,3.35,3.01
			c0,0.32-0.27,0.57-0.57,0.57C153.92,14.55,153.75,14.48,153.64,14.29z"/>
		<path class="st0" d="M180.97,13.54c-0.53,0-1.18-0.21-1.86-0.74c-1.73-1.33-2.38-4.07-2.68-5.57c-0.04-0.23-0.38-1.86-0.38-2.02
			c0-0.32,0.27-0.53,0.55-0.53c0.25,0,0.48,0.15,0.55,0.51c0.11,0.61,0.19,1.37,0.3,2c0.84,4.68,2.97,5.1,3.27,5.1
			c0.3,0,0.51-0.19,0.67-0.55c0.25-0.61,0.38-1.35,0.59-2.03c0.1-0.27,0.27-0.38,0.46-0.38c0.29,0,0.57,0.23,0.57,0.53
			c0,0.04-0.02,0.06-0.02,0.1c-0.15,0.84-0.44,1.69-0.59,2.51C182.28,13.11,181.73,13.54,180.97,13.54z M189,9.7
			c-0.19-1.5-1.43-3.06-2.78-4.13c-0.11-0.09-0.17-0.21-0.17-0.32c0-0.25,0.21-0.48,0.51-0.48c0.13,0,0.3,0.06,0.48,0.19
			c1.14,0.95,3.12,2.85,3.12,4.55c0,0.48-0.32,0.72-0.63,0.72C189.28,10.23,189.05,10.06,189,9.7z"/>
		<path class="st0" d="M224.05,9.87c0-0.3,0.25-0.46,0.51-0.46c0.27,0,0.55,0.17,0.57,0.49c0.02,0.59,0.04,1.35,0.04,2.09
			c0,0.48,0,0.93-0.02,1.33c-0.04,1.45-0.95,2.19-2.28,2.23c-1.41,0.04-3.25,0.06-5,0.06c-1.58,0-3.1-0.02-4.22-0.06
			c-1.35-0.06-2.07-0.76-2.09-2.17c0-0.53-0.02-1.14-0.02-1.77s0.02-1.24,0.02-1.75c0-0.34,0.29-0.51,0.53-0.51
			c0.27,0,0.53,0.17,0.53,0.46v0.02c-0.02,0.67-0.02,1.65-0.02,2.45c0,1.58,0,2.26,1.45,2.32c0.99,0.04,2.3,0.06,3.67,0.06V7.74
			c-1.16,0-2.28-0.02-3.33-0.06c-1.35-0.06-2.09-0.74-2.11-2.13c0-0.53-0.02-1.07-0.02-1.62s0.02-1.08,0.02-1.6
			c0-0.34,0.27-0.49,0.53-0.49c0.27,0,0.53,0.15,0.53,0.46v0.02c-0.02,0.67-0.02,1.48-0.02,2.19c0,1.6,0.06,2.21,1.45,2.26
			c0.93,0.04,1.94,0.06,2.95,0.06l-0.02-6.2c0-0.32,0.29-0.49,0.57-0.49c0.27,0,0.55,0.17,0.55,0.49l-0.02,6.2
			c1.05,0,2.09-0.02,3.02-0.06c1.56-0.06,1.56-0.99,1.56-2.47c0-0.67-0.04-1.35-0.06-1.92V2.36c0-0.29,0.27-0.44,0.53-0.44
			c0.27,0,0.55,0.15,0.55,0.49c0.02,0.48,0.04,0.99,0.04,1.5s-0.02,1.05-0.04,1.58c-0.04,1.43-0.91,2.13-2.28,2.19
			c-1.1,0.04-2.23,0.06-3.33,0.06v6.92c1.41,0,2.76-0.02,3.75-0.06c1.52-0.06,1.56-0.91,1.56-2.59c0-0.76-0.04-1.56-0.06-2.13V9.87z
			"/>
		<path class="st0" d="M250.04,16.34c-0.15,0-0.32-0.08-0.44-0.25c-0.55-0.84-1.83-1.79-2.76-2.26c-0.19-0.1-0.29-0.27-0.29-0.42
			c0-0.25,0.19-0.48,0.49-0.48c0.63,0,3.54,2,3.54,2.87C250.59,16.13,250.32,16.34,250.04,16.34z"/>
		<path class="st0" d="M274.4,15.92l0.25-10.42c-0.57,0.84-1.16,1.56-1.73,2.15c-0.15,0.15-0.32,0.23-0.48,0.23
			c-0.27,0-0.48-0.21-0.48-0.46c0-0.11,0.04-0.23,0.15-0.34c1.92-2.04,3.14-4.03,4.19-6.75C276.4,0.09,276.57,0,276.76,0
			c0.29,0,0.59,0.23,0.59,0.53c0,0.32-0.86,1.96-1.69,3.37l-0.23,12.02c-0.02,0.32-0.27,0.48-0.53,0.48c-0.25,0-0.49-0.15-0.49-0.46
			V15.92z M277.33,3.4c0-0.3,0.23-0.46,0.46-0.46s0.46,0.15,0.46,0.46v10.12c0,0.27-0.23,0.42-0.46,0.42s-0.46-0.15-0.46-0.42V3.4z
			 M286.54,2.72c-0.36,1.01-0.99,2.04-1.88,2.95c1.05,0.65,2.36,1.1,3.99,1.29c0.29,0.04,0.42,0.25,0.42,0.46
			c0,0.27-0.19,0.53-0.55,0.53c-0.15,0-2.43-0.21-4.51-1.69c-2.05,1.67-4.53,2.13-4.72,2.13c-0.3,0-0.49-0.27-0.49-0.49
			c0-0.19,0.11-0.36,0.34-0.4c1.69-0.3,3.1-0.93,4.19-1.77c-0.86-0.74-1.52-1.6-2-2.49c-1.29,1.9-1.64,1.96-1.79,1.96
			c-0.25,0-0.49-0.21-0.49-0.44c0-0.1,0.04-0.21,0.15-0.3c1.16-1.05,2.26-2.85,2.72-4.19c0.06-0.15,0.19-0.21,0.36-0.21
			c0.27,0,0.55,0.15,0.55,0.4c0,0.23-0.65,1.39-0.68,1.46l5.94-0.04c0.29,0,0.42,0.21,0.42,0.42c0,0.21-0.13,0.42-0.42,0.42H286.54z
			 M287.66,11.36c0.1-0.11,0.21-0.15,0.34-0.15c0.27,0,0.53,0.23,0.53,0.51c0,0.13-0.06,0.27-0.17,0.4
			c-3.27,3.75-8.18,4.15-8.52,4.15c-0.32,0-0.49-0.21-0.49-0.46c0-0.23,0.17-0.48,0.46-0.49C283.06,14.95,285.66,13.73,287.66,11.36
			z M279.98,11.26c-0.27,0-0.42-0.23-0.42-0.44c0-0.15,0.08-0.32,0.29-0.38c1.56-0.46,3.18-1.33,4.34-2.74
			c0.08-0.1,0.17-0.13,0.29-0.13c0.25,0,0.51,0.19,0.51,0.46c0,0.11-0.06,0.23-0.17,0.36C282.96,10.42,280.32,11.26,279.98,11.26z
			 M280.28,13.7c-0.29,0-0.44-0.23-0.44-0.46c0-0.19,0.1-0.36,0.32-0.42c1.92-0.49,4.13-1.56,5.69-3.35
			c0.1-0.11,0.21-0.15,0.32-0.15c0.27,0,0.51,0.21,0.51,0.48c0,0.11-0.06,0.23-0.15,0.34C284.22,12.69,280.74,13.7,280.28,13.7z
			 M281.9,2.72c0.48,0.89,1.14,1.75,2.05,2.45c0.72-0.7,1.26-1.52,1.6-2.45H281.9z"/>
		<path class="st0" d="M313.49,15.94l0.25-8.27c-0.87,0.86-2.34,2.15-2.8,2.15c-0.29,0-0.49-0.25-0.49-0.51
			c0-0.17,0.08-0.34,0.27-0.46c1.71-1.03,3.63-2.93,4.81-4.87c0.11-0.17,0.27-0.25,0.42-0.25c0.27,0,0.55,0.25,0.55,0.53
			c0,0.36-1.26,1.83-1.75,2.36l-0.21,9.32c-0.02,0.32-0.29,0.48-0.55,0.48c-0.25,0-0.49-0.15-0.49-0.46V15.94z M311.32,5.27
			c-0.3,0-0.53-0.21-0.53-0.48c0-0.15,0.1-0.34,0.34-0.48c1.58-0.91,3.04-2.51,3.99-4.05c0.11-0.19,0.29-0.27,0.44-0.27
			c0.27,0,0.53,0.21,0.53,0.49C316.1,1.16,312.33,5.27,311.32,5.27z M317.41,16.4c-0.32,0-0.51-0.25-0.51-0.48
			c0-0.21,0.13-0.4,0.4-0.42c1.75-0.15,3.18-0.55,4.28-1.1c-0.78-0.61-1.37-1.35-1.77-2.13c-1.62,1.52-3.2,2.42-3.54,2.42
			c-0.29,0-0.49-0.25-0.49-0.48c0-0.15,0.08-0.29,0.23-0.36c2.13-1.05,3.88-2.59,5.14-4.3c-2.68,0-2.68-0.67-2.68-2.34
			c0-0.55,0.02-1.08,0.04-1.6c0.04-0.76,0.63-1.29,1.73-1.33c0.55-0.02,1.26-0.04,1.96-0.04c0.7,0,1.41,0.02,1.96,0.04
			c1.07,0.04,1.64,0.51,1.69,1.22c0.04,0.44,0.06,0.89,0.06,1.33c0,2.55-0.04,2.72-3.71,2.72l-0.06,0.09
			c-0.29,0.38-0.59,0.76-0.91,1.14h2.13c1.27,0,2.13,0.02,2.13,0.87c0,0.57-0.86,1.77-2.24,2.74c1.05,0.46,2.4,0.72,4.11,0.74
			c0.29,0,0.44,0.23,0.44,0.46c0,0.27-0.19,0.55-0.57,0.55c-1.98-0.02-3.58-0.48-4.83-1.2C320.23,16.15,317.62,16.4,317.41,16.4z
			 M319.2,2.85c-0.51,0.87-1.12,1.73-1.73,2.4c-0.13,0.15-0.3,0.23-0.48,0.23c-0.27,0-0.49-0.19-0.49-0.44
			c0-0.11,0.06-0.23,0.17-0.36c1.27-1.37,2.07-2.68,2.7-4.39c0.08-0.21,0.25-0.29,0.44-0.29c0.27,0,0.53,0.17,0.53,0.44
			c0,0.27-0.59,1.41-0.67,1.56l7-0.04c0.3,0,0.46,0.23,0.46,0.44c0,0.23-0.15,0.46-0.46,0.46H319.2z M324.95,6.52
			c0-1.52-0.02-1.52-2.42-1.52c-0.76,0-1.58,0-2.13,0.02c-0.63,0.02-0.95,0.29-0.97,0.76c0,0.21-0.02,0.48-0.02,0.74H324.95z
			 M319.41,7.21c0,0.3,0,0.59,0.02,0.82c0.04,0.74,0.59,0.76,2.76,0.76c2.74,0,2.76,0,2.76-1.58H319.41z M320.34,11.76
			c0.42,0.84,1.07,1.6,2.04,2.19c1.29-0.82,2.04-1.9,2.04-2.15c0-0.17-0.19-0.25-0.53-0.25c-0.72,0-2.38,0.02-3.37,0.04
			L320.34,11.76z"/>
		<path class="st0" d="M352.7,15.39c-3.16,0-3.54-1.73-3.54-3.69c0-1.46,0.1-3.04,0.17-4.64c0.04-1.01,0.08-2.04,0.08-2.95
			c0-0.74-0.02-1.43-0.1-2.02c0-0.04,0-0.08,0-0.11c0-0.36,0.27-0.55,0.53-0.55c0.68,0,0.68,0.61,0.68,2.38
			c0,0.97-0.04,2.04-0.11,3.1c-0.1,1.45-0.21,3.02-0.21,4.47c0,1.62,0.04,2.95,2.36,2.95c0.02,0,2.42,0,4.91-1.05
			c0.13-0.06,0.25-0.08,0.34-0.08c0.34,0,0.55,0.25,0.55,0.55c0,0.25-0.15,0.51-0.53,0.67C356.41,14.97,354.22,15.39,352.7,15.39z"
			/>
		<path class="st0" d="M386.48,13.92c-0.32,1.22-1.56,2.26-3.08,2.26c-1.41,0-2.85-0.91-2.85-2.06c0-0.19,0.02-1.85,3.21-1.85
			c0.63,0,1.27,0.08,1.88,0.23c0.02-0.17,0.02-0.32,0.02-0.49c0-0.42-0.04-0.84-0.08-1.31c-0.06-0.7-0.11-1.48-0.15-2.26
			c-0.68,0.17-1.31,0.25-1.83,0.25c-0.32,0-1.88-0.06-1.88-1.12c0-0.36,0.21-0.8,0.65-1.24c0.29-0.3,0.84-0.72,1.12-1.01
			c0.21-0.21,0.34-0.38,0.34-0.55c0-0.49-1.85-1.35-3.54-1.39c-0.36,0-0.55-0.23-0.55-0.46c0-0.25,0.19-0.48,0.61-0.48
			c1.01,0,4.76,1.07,4.76,2.34c0,0.32-0.23,0.57-0.48,0.68c-0.36,0.17-1.86,1.45-1.86,1.9c0,0.27,0.4,0.42,0.91,0.42
			c0.48,0,1.1-0.13,1.69-0.3c-0.06-1.22-0.08-2.47-0.08-3.63c0-3.08,0.02-3.39,0.57-3.39c0.29,0,0.59,0.23,0.59,0.55
			c0,0.02,0,0.04,0,0.06c-0.1,1.2-0.17,2.87-0.17,4.58c0,0.49,0,1.01,0.02,1.5c0.7-0.29,1.18-0.57,1.56-0.95
			c0.15-0.15,0.3-0.21,0.46-0.21c0.27,0,0.49,0.21,0.49,0.49c0,0.84-2.28,1.6-2.49,1.67c0.04,0.86,0.11,1.65,0.19,2.34
			c0.06,0.55,0.11,1.28,0.11,1.98c0,0.11,0,0.21,0,0.32c1.14,0.4,2.85,1.37,2.85,2.11c0,0.34-0.23,0.61-0.51,0.61
			c-0.13,0-0.3-0.06-0.46-0.25c-0.51-0.61-1.22-1.12-2-1.48C386.52,13.85,386.5,13.89,386.48,13.92z M385.51,13.43
			c-0.61-0.19-1.26-0.29-1.88-0.29c-0.38,0-2.15,0.08-2.15,0.95c0,0.55,0.74,1.14,1.83,1.14c1.01,0,1.94-0.65,2.17-1.64
			L385.51,13.43z"/>
		<path class="st0" d="M425.36,4.83c-0.68-0.02-1.39-0.04-2.09-0.04c-1.01,0-2.02,0.02-3.02,0.09c0.08,2.4,0.08,2.57,0.25,3.39
			c0.15,0.15,0.7,0.8,0.7,1.81c0,0.63-0.21,1.28-0.61,1.96c-2.23,3.73-6.16,4.19-6.16,4.19c-0.4,0-0.65-0.27-0.65-0.53
			c0-0.23,0.17-0.46,0.59-0.55c1.98-0.42,3.73-1.24,5.27-3.37c-0.27,0.13-0.55,0.19-0.86,0.19c-1.67,0-2.49-1.54-2.49-2.68
			c0-1.29,1.03-1.96,2.04-1.96c0.38,0,0.76,0.08,1.12,0.23c-0.1-0.61-0.1-0.69-0.21-2.59c-2.59,0.21-5.16,0.68-7.59,1.52
			c-0.08,0.02-0.15,0.04-0.23,0.04c-0.32,0-0.55-0.27-0.55-0.55c0-0.23,0.17-0.48,0.57-0.59c2.53-0.69,5.12-1.12,7.76-1.37
			c0-0.27,0-0.51,0-0.74c0-2,0.02-2.51,0.65-2.51c0.3,0,0.61,0.23,0.61,0.55c0,0.04,0,0.06,0,0.09c-0.13,0.76-0.21,1.43-0.23,2.51
			c1.71-0.13,3.44-0.19,5.14-0.19c0.48,0,0.68,0.27,0.68,0.53c0,0.29-0.23,0.57-0.67,0.57H425.36z M418.42,8.22
			c-0.72,0-1.14,0.49-1.14,1.14c0,1.03,0.84,1.67,1.56,1.67c0.51,0,0.99-0.34,1.08-1.22c0-0.06,0.02-0.11,0.02-0.17
			c0-0.02,0-0.04,0-0.06c0-0.15-0.06-0.34-0.11-0.53C419.48,8.52,418.93,8.22,418.42,8.22z"/>
	</g>
</g>
</svg>
