<?xml version="1.0" encoding="utf-8"?>
<!-- Generator: Adobe Illustrator 25.3.1, SVG Export Plug-In . SVG Version: 6.00 Build 0)  -->
<svg version="1.1" id="レイヤー_1" xmlns="http://www.w3.org/2000/svg" xmlns:xlink="http://www.w3.org/1999/xlink" x="0px"
	 y="0px" viewBox="0 0 235.68 36.23" style="enable-background:new 0 0 235.68 36.23;" xml:space="preserve">
<style type="text/css">
	.st0{fill:#FFFFFF;}
	.st1{fill:#696969;}
</style>
<g>
	<g>
		<path class="st0" d="M57.05,6.26v0.12h-3.67V6.26c-0.15-1.63-1.16-2.59-2.88-2.59c-1.55,0-2.93,0.79-2.93,2.41
			c0,1.65,1.13,1.95,4.98,2.86c2.59,0.62,5,1.75,5,4.78c0,3.62-3.23,5.79-7.51,5.79c-4.46,0-6.97-1.68-6.97-6.11h3.89v0.15
			c0,2.22,1.16,3.23,3.23,3.23c1.7,0,3.38-0.74,3.38-2.51c0-0.69-0.27-1.21-0.79-1.53c-0.67-0.39-1.68-0.62-2.46-0.81
			c-1.77-0.44-3.45-0.89-5-1.97c-1.06-0.74-1.68-1.97-1.68-3.42c0.02-3.87,3.2-5.54,7.05-5.54C54.1,0.99,57.05,2.52,57.05,6.26z"/>
		<path class="st0" d="M73.21,2.25c2.22,1.5,3.52,4.31,3.52,7.79c0,3.08-1.01,6.14-3.08,7.76c-1.38,1.08-3.23,1.75-5.44,1.75
			c-5.32,0-8.55-3.25-8.55-9.12c0-5.47,2.73-9.51,8.55-9.51C70.21,0.92,71.91,1.36,73.21,2.25z M68.14,16.73
			c1.7,0,2.59-0.57,3.25-1.43c0.89-1.18,1.35-2.91,1.35-5.37c0-2.98-1.06-6.28-4.48-6.28c-3.55,0-4.61,3.15-4.61,6.48
			C63.66,13.19,64.42,16.73,68.14,16.73z"/>
		<path class="st0" d="M93.91,7.1h-3.89c-0.22-2.22-1.31-3.13-2.88-3.13c-3.33,0-4.02,3.99-4.02,6.63c0,3.99,1.31,6.11,3.74,6.11
			c1.95,0,3.18-1.5,3.18-3.38h4.02c0,3.77-2.83,6.18-6.82,6.18c-5.4,0-8.1-3.65-8.1-8.94c0-5.13,2.73-9.39,8.15-9.39
			C90.73,1.19,93.89,3.16,93.91,7.1z"/>
		<path class="st0" d="M101.01,1.24V19.1h-3.82V1.24H101.01z"/>
		<path class="st0" d="M114.14,1.29l6.18,17.81h-3.84l-1.28-3.84h-7.05l-1.33,3.84h-3.65l6.43-17.81H114.14z M109.14,12.37h5.1
			l-2.46-7.59L109.14,12.37z"/>
		<path class="st0" d="M126.43,1.31v14.76h7.64v3.03h-11.53V1.31H126.43z"/>
		<path class="st0" d="M149.22,1.36c2.24,0,4.41,0.54,5.99,1.75c1.75,1.36,2.83,3.82,2.83,6.85c0,4.14-1.7,7.34-5.05,8.6
			c-1.04,0.39-2.29,0.54-3.57,0.54h-6.43V1.34L149.22,1.36z M146.86,16.17c0.52,0,1.04,0.05,1.55,0.05c0.86,0,1.63-0.05,2.12-0.17
			c2.93-0.67,3.57-3.74,3.57-6.11c0-2.39-0.76-5.07-3.87-5.62c-0.52-0.1-1.33-0.12-2.07-0.12c-0.44,0-0.89,0-1.31,0.03V16.17z"/>
		<path class="st0" d="M172.92,1.29V4.2h-8.11v4.24h7.59v2.91h-7.59v4.8h8.38v2.96H161V1.29H172.92z"/>
		<path class="st0" d="M189.58,6.26v0.12h-3.67V6.26c-0.15-1.63-1.16-2.59-2.88-2.59c-1.55,0-2.93,0.79-2.93,2.41
			c0,1.65,1.13,1.95,4.98,2.86c2.59,0.62,5,1.75,5,4.78c0,3.62-3.23,5.79-7.51,5.79c-4.46,0-6.97-1.68-6.97-6.11h3.89v0.15
			c0,2.22,1.16,3.23,3.23,3.23c1.7,0,3.38-0.74,3.38-2.51c0-0.69-0.27-1.21-0.79-1.53c-0.67-0.39-1.68-0.62-2.46-0.81
			c-1.77-0.44-3.45-0.89-5-1.97c-1.06-0.74-1.68-1.97-1.68-3.42c0.02-3.87,3.2-5.54,7.05-5.54C186.62,0.99,189.58,2.52,189.58,6.26z
			"/>
		<path class="st0" d="M196.94,1.24V19.1h-3.82V1.24H196.94z"/>
		<path class="st0" d="M214.51,2.3c1.38,1.01,2.09,2.49,2.09,4.46h-3.97c-0.07-2.09-1.36-3.18-3.47-3.18c-3.89,0-5.2,3.3-5.2,6.78
			c0,3.4,1.31,6.31,5.49,6.31c1.26,0,2.34-0.1,3.08-0.34v-3.75h-3.45V9.61h7.27v8.89c-2.07,0.71-4.09,0.98-6.5,0.98
			c-3.65,0-6.06-0.81-7.61-2.41c-1.55-1.6-2.32-3.77-2.32-6.6c0-6.31,3.94-9.68,9.34-9.68C211.41,0.8,213.16,1.29,214.51,2.3z"/>
		<path class="st0" d="M225.45,1.29l6.68,14.02V1.29h3.55V19.1h-5.25l-6.9-14.78V19.1h-3.6V1.29H225.45z"/>
	</g>
	<g>
		<path class="st0" d="M45.56,27.25v2.92l2.78-2.92h1.27l-2.98,2.98l3.31,3.68h-1.29l-3.08-3.54v3.54h-0.91v-6.67H45.56z"/>
		<path class="st0" d="M54.38,28.91c-0.04-0.67-0.51-1.02-1.39-1.02c-0.93,0-1.49,0.41-1.49,1.08c0,0.59,0.39,0.78,1.15,0.98
			c0.84,0.21,1.45,0.34,1.88,0.54c0.77,0.34,0.98,0.91,0.98,1.5c0,1.23-1,2.08-2.62,2.08c-1.68,0-2.46-0.78-2.46-1.99v-0.11h0.96
			c0.01,0.93,0.54,1.32,1.61,1.32c1.04,0,1.56-0.53,1.56-1.19c0-0.52-0.3-0.78-0.89-0.95c-1.07-0.31-1.87-0.42-2.4-0.73
			c-0.4-0.24-0.75-0.67-0.75-1.35c0-1.23,1.1-1.95,2.54-1.95c1.27,0,2.26,0.54,2.28,1.79H54.38z"/>
		<path class="st0" d="M57.82,27.25v4.25c0,1.27,0.83,1.74,1.83,1.74c1.15,0,1.79-0.58,1.79-1.84v-4.15h0.9v4.17
			c0,1.69-1.14,2.63-2.7,2.63c-0.56,0-1.06-0.11-1.51-0.34c-0.88-0.45-1.24-1.11-1.24-2.34v-4.13H57.82z"/>
		<path class="st0" d="M67.51,26.99v9.23h-0.77v-9.23H67.51z"/>
		<path class="st0" d="M74.62,27.25l2.7,6.67h-1.01l-0.72-1.74H72.5l-0.72,1.74h-0.95l2.81-6.67H74.62z M72.79,31.44h2.52
			l-1.23-3.27L72.79,31.44z"/>
		<path class="st0" d="M80.65,29.25v0.85c-0.1-0.04-0.23-0.05-0.41-0.05c-0.91,0-1.27,0.47-1.27,1.37v2.5h-0.88v-3.76
			c0-0.08-0.02-0.55-0.05-0.88h0.88c0.01,0.44,0.02,0.74,0.02,0.9c0.16-0.63,0.72-0.94,1.46-0.94
			C80.48,29.24,80.56,29.24,80.65,29.25z"/>
		<path class="st0" d="M83.13,29.27h1.03v0.64h-1.03v2.83c0,0.42,0.22,0.56,0.62,0.56c0.16,0,0.3-0.02,0.41-0.05v0.67
			c-0.16,0.03-0.41,0.06-0.71,0.06c-0.9,0-1.18-0.32-1.18-0.96V29.9h-0.82v-0.64h0.82V28.3l0.86-0.28V29.27z"/>
		<path class="st0" d="M91.28,32.76c0,0.25,0.03,0.79,0.07,1.15h-0.79c-0.06-0.21-0.08-0.4-0.08-0.69
			c-0.29,0.53-0.72,0.84-1.44,0.84c-0.99,0-1.63-0.55-1.63-1.37c0-0.4,0.12-0.8,0.58-1.2c0.3-0.26,0.91-0.46,1.76-0.46
			c0.12,0,0.41,0,0.7,0.03v-0.31c0-0.28-0.02-0.48-0.11-0.63c-0.19-0.32-0.57-0.39-0.9-0.39c-0.54,0-0.88,0.28-0.9,0.78H87.7
			c0.02-0.3,0.09-0.54,0.21-0.73c0.34-0.53,1.04-0.65,1.61-0.65c0.43,0,0.9,0.09,1.22,0.28c0.35,0.2,0.58,0.51,0.58,1.08
			L91.28,32.76z M90.45,32.15l0.02-0.48c-0.09-0.02-0.39-0.03-0.5-0.03c-1.1,0-1.67,0.32-1.67,0.93c0,0.47,0.34,0.81,0.96,0.81
			C89.99,33.38,90.42,32.9,90.45,32.15z"/>
		<path class="st0" d="M96.91,33.92h-0.89v-3.04c0-0.8-0.65-1.02-1.07-1.02c-0.7,0-1.21,0.55-1.21,1.36v2.7h-0.87v-4.1
			c0-0.08,0-0.27-0.01-0.54h0.87c0.01,0.38,0.01,0.63,0.01,0.75c0.29-0.56,0.79-0.84,1.49-0.84c0.83,0,1.68,0.44,1.68,1.57V33.92z"
			/>
		<path class="st0" d="M102.54,27.26v5.94c0,0.1,0.01,0.34,0.04,0.72h-0.87c0-0.13-0.01-0.38-0.02-0.74
			c-0.29,0.59-0.98,0.83-1.55,0.83c-1.03,0-2-0.7-2-2.35c0-1.61,0.86-2.53,2.1-2.53c0.64,0,1.15,0.23,1.44,0.78v-2.65H102.54z
			 M101.7,31.53c0-1.17-0.56-1.75-1.38-1.75c-0.8,0-1.27,0.64-1.27,1.86c0,1.17,0.43,1.77,1.27,1.77
			C101.22,33.4,101.7,32.77,101.7,31.53z"/>
		<path class="st0" d="M108.77,27.25c1.19,0,1.82,0.21,2.37,0.78c0.54,0.55,0.91,1.5,0.91,2.61c0,1.07-0.35,1.99-0.91,2.55
			c-0.64,0.64-1.34,0.73-2.46,0.73h-2.07v-6.67H108.77z M108.5,33.16c0.68,0,1.17-0.08,1.49-0.25c0.63-0.34,1.07-1.08,1.07-2.23
			c0-0.54-0.08-1.03-0.27-1.47c-0.36-0.86-0.96-1.19-2.06-1.19h-1.2v5.14H108.5z"/>
		<path class="st0" d="M117.01,31.76h-3.33v0.07c0,1,0.48,1.6,1.33,1.6c0.62,0,1.03-0.34,1.09-0.96h0.87
			c-0.06,0.96-0.84,1.59-1.99,1.59c-1.42,0-2.15-0.86-2.15-2.41c0-1.77,0.94-2.48,2.19-2.48c1.32,0,2,0.76,2,2.23V31.76z
			 M116.13,31.15v-0.06c0-0.82-0.38-1.3-1.14-1.3c-0.73,0-1.27,0.53-1.27,1.37H116.13z"/>
		<path class="st0" d="M121.63,30.57h-0.89v-0.05c0-0.45-0.3-0.7-0.9-0.7c-0.59,0-0.94,0.23-0.94,0.67c0,0.28,0.19,0.47,0.56,0.56
			l1.07,0.27c0.81,0.2,1.21,0.58,1.21,1.26c0,0.45-0.22,1.49-1.98,1.49c-1.16,0-1.84-0.52-1.84-1.5h0.91c0,0.53,0.36,0.84,1.03,0.84
			c0.91,0,0.95-0.57,0.95-0.73c0-0.36-0.14-0.51-1.02-0.69c-1.14-0.24-1.78-0.51-1.78-1.38c0-0.83,0.73-1.4,1.81-1.4
			c0.38,0,0.74,0.06,1.03,0.18c0.45,0.18,0.76,0.51,0.76,1.08V30.57z"/>
		<path class="st0" d="M123.9,27.27v0.95h-1.04v-0.95H123.9z M123.81,29.28v4.64h-0.87v-4.64H123.81z"/>
		<path class="st0" d="M129.51,29.28c-0.01,0.25-0.03,0.79-0.03,1.03v2.53c0,1.35-0.03,1.87-0.33,2.27
			c-0.3,0.39-0.79,0.66-1.82,0.66c-0.64,0-1.24-0.09-1.6-0.45c-0.23-0.23-0.33-0.56-0.35-1.04h0.92c0.05,0.66,0.39,0.91,1.08,0.91
			c0.98,0,1.23-0.55,1.23-1.78v-0.35c-0.21,0.48-0.75,0.78-1.52,0.78c-0.65,0-1.11-0.19-1.43-0.58c-0.34-0.42-0.52-1.01-0.52-1.7
			c0-1.46,0.83-2.34,2.06-2.34c0.64,0,1.13,0.22,1.46,0.7l0.01-0.64H129.51z M128.45,32.55c0.15-0.27,0.19-0.64,0.19-1.14
			c0-0.63-0.15-0.95-0.4-1.2c-0.25-0.25-0.64-0.37-0.97-0.37c-0.78,0-1.24,0.62-1.24,1.7c0,1.06,0.43,1.65,1.27,1.65
			C127.85,33.19,128.21,32.98,128.45,32.55z"/>
		<path class="st0" d="M135.15,33.92h-0.89v-3.04c0-0.8-0.65-1.02-1.07-1.02c-0.7,0-1.21,0.55-1.21,1.36v2.7h-0.87v-4.1
			c0-0.08,0-0.27-0.01-0.54h0.87c0.01,0.38,0.01,0.63,0.01,0.75c0.29-0.56,0.79-0.84,1.49-0.84c0.83,0,1.68,0.44,1.68,1.57V33.92z"
			/>
	</g>
	<g>
		<path class="st0" d="M6.63,19.11c-0.4,1.18-0.62,2.44-0.62,3.75c0,6.41,5.19,11.6,11.6,11.6c6.11,0,11.06-4.95,11.06-11.06
			c0-3.89-1.98-7.08-4.87-9.47c-2.64-2.18-6.97-3.8-8.9-5.4c-1.06-0.89-1.94-2.26-1.94-3.89c0-2.56,2.08-4.64,4.64-4.64
			c2,0,3.64,1.24,4.48,3.34l13.13,31.85H0L6.63,19.11L6.63,19.11z"/>
	</g>
</g>
</svg>
