<?xml version="1.0" encoding="utf-8"?>
<!-- Generator: Adobe Illustrator 25.3.1, SVG Export Plug-In . SVG Version: 6.00 Build 0)  -->
<svg version="1.1" id="レイヤー_1" xmlns="http://www.w3.org/2000/svg" xmlns:xlink="http://www.w3.org/1999/xlink" x="0px"
	 y="0px" viewBox="0 0 158.46 36.86" style="enable-background:new 0 0 158.46 36.86;" xml:space="preserve">
<style type="text/css">
	.st0{fill:#FFFFFF;}
	.st1{fill:#696969;}
</style>
<g>
	<polygon class="st0" points="5.76,36.31 8.07,36.31 6.12,31.99 6.12,31.98 7.74,28.29 5.6,28.29 4.06,31.8 4,31.78 4,28.29 
		1.99,28.29 1.99,36.34 4,36.34 4,32.4 4.06,32.39 	"/>
	<path class="st0" d="M18.8,36.48c1.61,0,2.91-1.26,2.96-2.87v-0.02c0-0.01,0-0.03,0-0.04c0,0,0-0.01,0-0.01l0-0.02v-5.23h-2.12
		v5.31c0,0.46-0.38,0.84-0.84,0.84c-0.46,0-0.84-0.38-0.84-0.84v-5.31h-2.12l0,5.26l0,0.01v0.05C15.89,35.22,17.19,36.48,18.8,36.48
		z"/>
	<path class="st0" d="M12.91,32.85c-0.02-0.14-0.09-0.37-0.19-0.63l0,0l0-0.01c-0.01-0.03-0.37-0.89-0.37-1.34
		c0-0.81,0.6-1.29,0.79-1.41l-0.97-1.73c-0.21,0.09-1.06,0.52-1.57,1.78c-0.25,0.6-0.33,1.43-0.2,2.03c0.05,0.22,0.2,0.64,0.2,0.64
		c0.21,0.49,0.37,0.9,0.37,1.35c0,0.82-0.61,1.39-0.79,1.53l0.97,1.72c0.22-0.12,1.06-0.63,1.57-1.89
		C12.95,34.31,13.03,33.5,12.91,32.85z"/>
</g>
<path class="st0" d="M9.41,18.41c-0.27-0.16-1.78-1.09-2.71-2.62c-0.27-0.04-4.91-0.85-6.62-5.56c-0.06,0.62-0.26,3.89,2.24,6.27
	l0.03,0.03l-0.04,0.01c-0.04,0.01-0.83,0.27-1.27,0.3c0.46,0.29,3.25,2.04,6.05,2.04C7.94,18.89,8.72,18.73,9.41,18.41z"/>
<path class="st0" d="M5.46,12.17c-0.24-0.13-3.71-2.07-3.48-6.93c-0.25,0.47-1.32,2.66-0.91,5.32l0.01,0.04l-0.04-0.02
	c-0.03-0.01-0.64-0.29-0.87-0.49c0.25,0.69,1.74,4.31,6.22,5.21C6.25,15.04,5.59,13.69,5.46,12.17z"/>
<path class="st0" d="M5.31,2.06C4.96,2.34,3.45,3.65,2.67,5.9L2.65,5.94L2.62,5.91C2.61,5.89,2.27,5.49,2.1,5.17
	c-0.02,0.67,0.04,4.56,3.31,6.49C5.4,11.36,5.34,9.67,5.77,8.3C5.64,8.11,3.91,5.5,5.31,2.06z"/>
<path class="st0" d="M5.69,3.02L5.66,3.07L5.64,3.01c0-0.01-0.12-0.48-0.16-1C5.25,2.48,4.14,5.03,5.89,7.8
	c0.09-0.27,0.58-1.58,1.43-2.53c-0.04-0.19-0.5-2.33,1.28-4.73C8.24,0.69,6.72,1.41,5.69,3.02z"/>
<path class="st0" d="M7.66,4.86c0.16-0.18,0.88-0.97,1.93-1.7c0.03-0.13,0.42-1.58,2.05-3.12c-0.35,0.07-1.72,0.41-2.88,1.31
	L8.73,1.38L8.72,1.34c0-0.01-0.06-0.33,0.04-0.79C8.45,0.95,7.23,2.7,7.66,4.86z"/>
<path class="st0" d="M9.95,2.93c0.25-0.15,1.32-0.74,1.88-0.96c0.05-0.11,0.51-1.12,2.1-1.7c-0.07-0.01-0.15-0.01-0.26-0.01
	c-0.44,0-1.28,0.07-1.95,0.54l-0.04,0.03l0-0.05c0-0.01-0.01-0.35,0.12-0.67C11.52,0.34,10.5,1.23,9.95,2.93z"/>
<path class="st0" d="M12.18,1.85c0.35-0.12,2.09-0.7,3.96-0.89c-0.13-0.08-0.5-0.27-1.16-0.27c-0.3,0-0.63,0.04-0.98,0.12
	l-0.03,0.01l-0.01-0.02c0-0.01-0.04-0.21,0.11-0.42C13.8,0.44,12.78,0.77,12.18,1.85z"/>
<path class="st0" d="M5.86,22.01c0.92,0.14,1.79,0.21,2.61,0.21c0,0,0,0,0,0c4.07,0,5.55-1.81,5.74-2.08
	c-2.29-0.27-4.07-1.31-4.24-1.41c-0.74,0.37-1.58,0.56-2.51,0.56c-2.91,0-5.81-1.88-6.38-2.27c2.46,3.91,5.75,4.29,5.78,4.29
	l0.08,0.01l-0.07,0.04C6.53,21.56,6.02,21.9,5.86,22.01z"/>
<path class="st0" d="M15.07,20.26c-1.52,1.79-4.21,2.17-6.21,2.17c-1.36,0-2.48-0.17-2.87-0.24c2.05,1.19,4.32,1.71,6.72,1.55
	c4.78-0.31,5.67-3.23,5.76-3.58c-0.67,0.11-1.38,0.17-2.11,0.17C15.65,20.33,15.16,20.27,15.07,20.26z"/>
<path class="st0" d="M18.92,20.07c-0.45,1.36-1.52,2.2-2.13,2.58c2.56-1.19,4.28-3.35,4.95-4.3C20.5,19.76,19.08,20.04,18.92,20.07z
	"/>
<g>
	<path class="st0" d="M22.34,13.49c0.71,1.78,0.34,3.15,0.09,3.76c0.74-1.26,1.09-3.52,1.13-3.81L22.34,13.49z"/>
	<polygon class="st0" points="22.25,17.57 22.25,17.57 22.25,17.57 	"/>
</g>
<g>
	<path class="st0" d="M16.42,20.14c1.52,0,2.84-0.25,3.51-0.67c0.15-0.06,3.47-1.53,2.47-5.27c-0.53-1.96-2.35-2.25-3.39-2.25
		c-0.66,0-1.2,0.11-1.41,0.18c-0.65,0.2-1.51,0.92-1.66,1.05c0.16,0.13,1.12,0.9,1.53,1.4c0.12-0.18,0.75-1.14,1.75-1.14
		c0.17,0,0.33,0.03,0.5,0.08c1.66,0.5,1.47,2.01,1.41,2.3c-0.16,0.87-0.93,2.93-4.55,3.28c-0.39,0.04-0.8,0.06-1.22,0.06
		c-3.7,0-8.36-1.61-9.34-6.15c-0.56-2.59-0.14-5.04,1.2-7.07c1.21-1.84,3.15-3.26,5.65-4.16c-0.87,0.29-2.06,0.78-3.24,1.58
		c-2.02,1.37-4.36,3.95-4.07,8.46C6,18.38,12.59,20.14,16.42,20.14z"/>
</g>
<path class="st0" d="M16.06,1.11c-0.02,0-0.04,0-0.05,0c-1.09,0-3.41,0.9-3.74,1.03c0.42,0.34,1.06,0.41,1.54,0.41
	c0.32,0,0.58-0.03,0.7-0.05c-0.3-0.21-0.24-0.48-0.23-0.49l0-0.02h0.02C15.46,1.93,15.95,1.27,16.06,1.11z"/>
<path class="st0" d="M13.75,2.69c-1.04,0-1.74-0.35-1.83-0.4c-0.67,0.25-1.65,0.88-1.82,0.99c0.54,0.51,1.25,0.62,1.75,0.62
	c0.43,0,0.78-0.08,0.93-0.12c-0.16-0.07-0.38-0.23-0.39-0.24l-0.05-0.04l0.06-0.01c1.48-0.16,1.96-0.71,2.07-0.87
	C14.22,2.68,13.98,2.69,13.75,2.69z"/>
<path class="st0" d="M7.95,5.25c0.12,0.08,0.79,0.49,2.29,0.47c2.04-0.03,2.55-1.55,2.62-1.82C12.48,4,12.1,4.06,11.73,4.06
	c-1.11,0-1.87-0.46-1.98-0.54C9,3.99,8.08,5.09,7.95,5.25z"/>
<path class="st0" d="M9.88,5.85c-1.13,0-2.06-0.3-2.19-0.34c-0.8,0.97-1.27,2.41-1.33,2.62c0.25,0.05,0.52,0.08,0.8,0.08
	c0.5,0,0.89-0.09,0.89-0.09L8.4,7.91L8.59,7.1l0.01,0l3.09-1.03l-0.62-0.33C10.7,5.81,10.3,5.85,9.88,5.85z"/>
<path class="st0" d="M5.99,11.72c1.33-0.1,1.95-0.61,2.02-0.67V8.27C7.34,8.49,6.36,8.5,6.23,8.5C5.81,9.96,5.97,11.51,5.99,11.72z"
	/>
<path class="st0" d="M7.98,14.76L8,11.26c-0.79,0.56-1.79,0.84-1.95,0.88c0.29,2.03,1,3.01,1.1,3.13
	C7.61,15.08,7.93,14.81,7.98,14.76z"/>
<path class="st0" d="M8.06,14.92c-0.05,0.07-0.24,0.32-0.67,0.7c0.11,0.17,1.03,1.49,2.81,2.27c0.08-0.14,0.6-1.02,0.72-1.99
	L8.06,14.92z"/>
<path class="st0" d="M14.73,18.94c0.28-1.06-0.15-2.85-0.2-3.06l-3.46,0.04c0.04,0.89-0.28,2-0.33,2.17
	c1.98,0.8,3.51,0.86,3.94,0.86C14.69,18.94,14.71,18.94,14.73,18.94z"/>
<path class="st0" d="M14.57,15.59c0.66,1.4,0.82,3.14,0.84,3.35c2,0.08,3.28-0.55,3.41-0.62c0.31-2.8-3.04-5.08-3.38-5.3
	L14.57,15.59z"/>
<path class="st0" d="M18.87,13.61c-0.08,0.02-0.83,0.26-1.31,1.07c0.15,0.17,1.59,1.79,1.41,3.56c0.3-0.16,2.1-1.19,2.03-2.91
	c-0.05-1.3-1.09-1.77-1.78-1.77C19.09,13.57,18.97,13.58,18.87,13.61z"/>
<path class="st0" d="M18.26,9.54c-0.32-0.14-1.82-0.9-2.46-3.05l-0.41,0.07l0.03,5.82l0.43-0.15C15.9,12.06,16.48,10.19,18.26,9.54z
	"/>
<path class="st0" d="M19.14,6.94c-0.99-0.43-2.26-0.47-2.76-0.47c-0.06,0-0.11,0-0.14,0c0.48,2.24,2.06,2.96,2.21,3.02
	c0.72-0.39,1.61-0.35,1.96-0.32C19.54,8.66,19.18,7.11,19.14,6.94z"/>
<path class="st0" d="M19.52,7.1c0.05,0.27,0.35,1.73,1.17,2.09c0.01,0,1.41,0.28,2.52,0.86C22.97,9.69,21.9,8.17,19.52,7.1z"/>
<path class="st0" d="M15.64,6.05c-0.72,0-1.47,0.07-2.24,0.22l1.59,0.24c-0.01,0,0.62-0.2,1.58-0.2c1.53,0,3.74,0.48,5.89,2.66
	C21.55,7.97,19.32,6.05,15.64,6.05z"/>
<path class="st0" d="M20.89,6.44c-0.63,0-1.07,0.24-1.2,0.32c2.08,0.94,3.38,2.73,3.66,3.15c-0.22-1.86-0.94-2.99-0.94-3
	C21.92,6.6,21.4,6.44,20.89,6.44z"/>
<path class="st0" d="M20.86,4.68c0,0.01-0.43-0.1-1.05-0.1c-0.95,0-2.31,0.24-3.43,1.36c0.28,0.02,1.58,0.13,2.77,0.61
	c0.08-0.04,0.67-0.29,1.44-0.29c0.64,0,1.23,0.17,1.76,0.51C22.14,6.41,21.39,5.11,20.86,4.68z"/>
<g>
	<path class="st0" d="M19.25,3.11C19.07,3,18.56,2.9,17.81,2.9c-0.94,0-4.14,0.2-5.94,2.79l0.44,0.65c0.16-0.06,1.36-0.47,3.4-0.45
		c0.12-0.11,1.55-1.46,3.88-1.46c0.21,0,0.43,0.04,0.64,0.06c0,0,0,0,0.01,0c0.17,0.02,0.34,0.02,0.51,0.05
		C20.56,4.32,19.79,3.42,19.25,3.11z"/>
	<path class="st0" d="M12.3,5.11c-0.02,0.02-0.03,0.04-0.05,0.06C12.27,5.15,12.29,5.13,12.3,5.11z"/>
</g>
<path class="st0" d="M17.46,2.74c0.51,0,1.02,0.04,1.52,0.12c-0.34-0.24-1.62-1.13-2.89-1.5c-0.09,0.09-0.77,0.76-1.63,0.76h0
	c0.01,0.08,0.06,0.28,0.27,0.36l0.02,0.01l-0.01,0.02c0,0.01-0.38,0.86-1.95,1.08c0.05,0.04,0.15,0.11,0.27,0.16
	C13.21,3.68,15.04,2.74,17.46,2.74z"/>
<path class="st0" d="M17.02,2.84c-0.76,0.02-2.3,0.2-4,1.08C13,3.97,12.94,4.19,12.8,4.46C13.18,4.13,14.54,3.11,17.02,2.84z"/>
<path class="st0" d="M19.23,4.53c-0.84,0.05-2.15,0.32-3.33,1.38c0.08,0,0.21,0,0.33,0.02C16.33,5.8,17.22,4.73,19.23,4.53z"/>
<path class="st0" d="M20.96,6.37c-0.11-0.01-0.23-0.02-0.36-0.02c-0.43,0-0.86,0.09-1.27,0.26l0.23,0.1
	c0.08-0.05,0.54-0.34,1.26-0.34C20.86,6.37,20.91,6.37,20.96,6.37z"/>
<path class="st0" d="M19.25,6.98c0.21,0.91,0.55,1.45,0.79,1.73c-0.46-0.69-0.62-1.55-0.64-1.67C19.35,7.02,19.29,7,19.25,6.98z"/>
<path class="st0" d="M16.14,6.47c-0.08,0-0.17,0.01-0.22,0.01c0.29,0.99,0.81,1.69,1.26,2.14C16.37,7.69,16.16,6.63,16.14,6.47z"/>
<path class="st0" d="M12.05,2.25c0.22,0.12,0.45,0.19,0.66,0.24c-0.32-0.11-0.51-0.25-0.56-0.29C12.12,2.21,12.08,2.23,12.05,2.25z"
	/>
<path class="st0" d="M12.06,1.89c0.03-0.07,0.2-0.41,0.56-0.77c-0.23,0.2-0.47,0.47-0.65,0.81C11.99,1.91,12.02,1.9,12.06,1.89z"/>
<path class="st0" d="M9.86,3.46c0.53,0.33,1.07,0.46,1.46,0.5C10.5,3.81,10.09,3.43,10,3.35C9.96,3.38,9.9,3.43,9.86,3.46z"/>
<path class="st0" d="M9.72,3.07l0.11-0.08c0.02-0.08,0.15-0.61,0.6-1.38C10.19,1.99,9.9,2.51,9.72,3.07z"/>
<path class="st0" d="M8.99,5.71C8.32,5.58,7.95,5.39,7.87,5.34C7.83,5.38,7.8,5.41,7.78,5.43C8.25,5.58,8.66,5.67,8.99,5.71z"/>
<path class="st0" d="M6.32,8.24L6.27,8.4h0.07c0.54,0,0.96-0.06,1.23-0.11C7.4,8.3,7.25,8.31,7.1,8.31C6.65,8.31,6.4,8.25,6.32,8.24
	z"/>
<path class="st0" d="M7.34,11.54C6.7,11.78,6.13,11.83,6,11.83c0.01,0.1,0.02,0.16,0.03,0.2C6.61,11.87,7.05,11.68,7.34,11.54z"/>
<path class="st0" d="M7.33,15.54c0.1-0.08,0.55-0.45,0.65-0.65l0-0.02c-0.1,0.08-0.39,0.31-0.77,0.49
	C7.23,15.4,7.28,15.48,7.33,15.54z"/>
<path class="st0" d="M10.97,16.18c-0.08,0.38-0.3,1.2-0.64,1.75c0.04,0.02,0.13,0.06,0.28,0.11C10.66,17.88,10.96,16.91,10.97,16.18
	z"/>
<path class="st0" d="M14.72,16.2c0.13,0.58,0.35,1.81,0.17,2.74c0.07,0,0.23,0.01,0.37,0.01C15.24,18.73,15.13,17.3,14.72,16.2z"/>
<path class="st0" d="M7.7,2.41C7.49,3.03,7.25,4.02,7.41,5.15c0.04-0.05,0.1-0.13,0.15-0.18C7.53,4.84,7.26,3.91,7.7,2.41z"/>
<path class="st0" d="M5.84,7.96c-0.08-0.1-0.7-0.91-0.94-2.51c0.08,0.68,0.3,1.67,0.9,2.69L5.84,7.96z"/>
<path class="st0" d="M2.6,8.56C3,9.57,3.81,11.04,5.44,12.04c-0.01-0.07-0.02-0.18-0.02-0.24C5.24,11.71,3.58,10.87,2.6,8.56z"/>
<path class="st0" d="M2.04,13.19c0.65,0.67,2.1,1.88,4.54,2.46c-0.04-0.06-0.11-0.16-0.14-0.21C6.25,15.41,4.09,15.11,2.04,13.19z"
	/>
<path class="st0" d="M7.2,19.01c-1.05,0-2.21-0.22-3.44-0.65c0.69,0.31,2.07,0.82,3.62,0.82c0.89,0,1.71-0.17,2.46-0.51
	c-0.07-0.04-0.2-0.11-0.28-0.16C9.43,18.57,8.65,19.01,7.2,19.01z"/>
<path class="st0" d="M18.77,20.1c-0.07,0.02-0.14,0.03-0.17,0.04c-0.1,0.66-0.63,1.34-0.99,1.74C18.37,21.16,18.7,20.3,18.77,20.1z"
	/>
<path class="st0" d="M10.23,22.24c3.19-0.29,4.46-1.76,4.65-2c-0.16-0.01-0.41-0.05-0.47-0.05C13.46,21.56,11.45,22.06,10.23,22.24z
	"/>
<path class="st0" d="M16.09,6.68c0-0.44-0.36-0.8-0.8-0.8h-2.45c-0.15-0.42-0.55-0.72-1.02-0.72c-0.47,0-0.87,0.3-1.02,0.72H8.36
	c-0.44,0-0.8,0.36-0.8,0.8v1.69c0,0.29,0.13,0.55,0.34,0.72C7.69,9.26,7.56,9.52,7.56,9.81v1.36c0,0.29,0.13,0.55,0.34,0.72
	c-0.21,0.15-0.34,0.39-0.34,0.66v2.95c0,0.51,0.41,0.93,0.92,0.93c0.25,0,0.49-0.11,0.66-0.28c0.12,0.14,0.28,0.23,0.47,0.23h1.29
	c0.03,0.49,0.43,0.87,0.92,0.87s0.89-0.39,0.92-0.87h1.38c0.16,0,0.32-0.07,0.43-0.19c0.16,0.14,0.37,0.23,0.61,0.23
	c0.51,0,0.92-0.42,0.92-0.93v-2.95c0-0.27-0.13-0.51-0.34-0.66c0.21-0.17,0.34-0.43,0.34-0.72V9.81c0-0.29-0.13-0.55-0.34-0.72
	c0.21-0.17,0.34-0.43,0.34-0.72V6.68z"/>
<path class="st1" d="M11.82,17.36c-0.51,0-0.94-0.38-1.01-0.87h-1.2c-0.18,0-0.34-0.07-0.48-0.19c-0.18,0.15-0.41,0.23-0.65,0.23
	c-0.57,0-1.03-0.46-1.03-1.03v-2.95c0-0.25,0.11-0.49,0.29-0.66c-0.18-0.19-0.29-0.45-0.29-0.72V9.81c0-0.27,0.1-0.53,0.29-0.72
	C7.56,8.9,7.46,8.64,7.46,8.37V6.68c0-0.5,0.41-0.91,0.9-0.91h2.37c0.18-0.43,0.61-0.72,1.09-0.72c0.48,0,0.9,0.29,1.09,0.72h2.38
	c0.5,0,0.9,0.41,0.9,0.91v1.69c0,0.27-0.1,0.53-0.29,0.72c0.19,0.19,0.29,0.45,0.29,0.72v1.36c0,0.27-0.1,0.52-0.29,0.71
	c0.18,0.17,0.29,0.41,0.29,0.66v2.95c0,0.57-0.46,1.03-1.03,1.03c-0.22,0-0.43-0.07-0.6-0.2c-0.12,0.1-0.28,0.15-0.43,0.15h-1.29
	C12.76,16.98,12.33,17.36,11.82,17.36z M9.15,16l0.07,0.09c0.1,0.12,0.24,0.19,0.39,0.19H11l0.01,0.1c0.02,0.44,0.38,0.78,0.82,0.78
	s0.79-0.34,0.82-0.78l0.01-0.1h1.48c0.13,0,0.26-0.06,0.35-0.15l0.07-0.07l0.07,0.06c0.15,0.13,0.34,0.2,0.54,0.2
	c0.45,0,0.82-0.37,0.82-0.83v-2.95c0-0.23-0.11-0.44-0.3-0.57l-0.11-0.08l0.1-0.08c0.19-0.16,0.3-0.39,0.3-0.64V9.81
	c0-0.25-0.11-0.48-0.3-0.64l-0.1-0.08l0.1-0.08c0.19-0.16,0.3-0.39,0.3-0.64V6.68c0-0.39-0.31-0.7-0.7-0.7h-2.52l-0.02-0.07
	c-0.14-0.39-0.51-0.65-0.92-0.65c-0.41,0-0.78,0.26-0.92,0.65l-0.02,0.07H8.36c-0.39,0-0.7,0.31-0.7,0.7v1.69
	c0,0.25,0.11,0.48,0.3,0.64l0.1,0.08l-0.1,0.08c-0.19,0.16-0.3,0.39-0.3,0.64v1.36c0,0.25,0.11,0.48,0.3,0.64l0.1,0.09l-0.11,0.08
	c-0.19,0.13-0.3,0.35-0.3,0.57v2.95c0,0.46,0.37,0.83,0.82,0.83c0.22,0,0.43-0.09,0.58-0.24L9.15,16z"/>
<path class="st1" d="M15.16,16.02c0.28,0,0.52-0.23,0.52-0.52v-2.95c0-0.22-0.18-0.4-0.39-0.4H8.36c-0.22,0-0.39,0.18-0.39,0.4v2.95
	c0,0.29,0.23,0.52,0.52,0.52C8.77,16.02,9,15.79,9,15.5v-2.55h5.64v2.55C14.64,15.79,14.88,16.02,15.16,16.02z"/>
<path class="st1" d="M9.93,10.24H9V9.8h0.93c0.12,0,0.21-0.11,0.21-0.25c0-0.14-0.1-0.26-0.21-0.26H8.49
	c-0.28,0-0.52,0.23-0.52,0.52v1.36c0,0.29,0.23,0.52,0.52,0.52h1.45c0.12,0,0.21-0.12,0.21-0.26c0-0.14-0.1-0.25-0.21-0.25H9v-0.44
	h0.93c0.12,0,0.21-0.11,0.21-0.25C10.15,10.35,10.05,10.24,9.93,10.24z"/>
<path class="st1" d="M13.71,11.69h1.45c0.28,0,0.52-0.23,0.52-0.52V9.81c0-0.29-0.23-0.52-0.52-0.52h-1.45
	c-0.12,0-0.21,0.12-0.21,0.26c0,0.14,0.1,0.25,0.21,0.25h0.93v0.44h-0.93c-0.12,0-0.21,0.11-0.21,0.25c0,0.14,0.1,0.25,0.21,0.25
	h0.93v0.44h-0.93c-0.12,0-0.21,0.11-0.21,0.25C13.5,11.58,13.59,11.69,13.71,11.69z"/>
<path class="st1" d="M11.82,16.85c0.29,0,0.52-0.23,0.52-0.52v-0.36h1.78c0.12,0,0.21-0.11,0.21-0.26v-1.99c0-0.22-0.18-0.4-0.4-0.4
	c-0.22,0-0.4,0.18-0.4,0.4v1.74h-1.2v-0.46h0.6c0.11,0,0.2-0.11,0.2-0.25v-1.12c0-0.14-0.09-0.26-0.2-0.26h-2.2
	c-0.11,0-0.2,0.12-0.2,0.26v1.12c0,0.14,0.09,0.25,0.2,0.25h0.57v0.46h-1.12v-1.74c0-0.22-0.18-0.4-0.4-0.4s-0.4,0.18-0.4,0.4v1.99
	c0,0.14,0.1,0.26,0.21,0.26h1.7v0.36C11.31,16.62,11.54,16.85,11.82,16.85z M11.16,14.5v-0.62h1.36v0.62H11.16z"/>
<path class="st1" d="M14.64,7.26v1.11c0,0.29,0.23,0.52,0.52,0.52c0.28,0,0.52-0.23,0.52-0.52V6.68c0-0.22-0.18-0.4-0.39-0.4H12.5
	l0-0.06c-0.01-0.36-0.31-0.66-0.67-0.66c-0.36,0-0.66,0.3-0.67,0.66l0,0.06H8.36c-0.22,0-0.39,0.18-0.39,0.4v1.69
	c0,0.29,0.23,0.52,0.52,0.52C8.77,8.89,9,8.66,9,8.37V7.26c0-0.03,0-0.07-0.01-0.11L8.97,7.08h1.92l-0.1,0.1
	c-0.27,0.29-0.46,0.48-0.78,0.77C9.87,8.09,9.78,8.27,9.77,8.44c0,0.12,0.04,0.23,0.12,0.31c0.21,0.21,0.6,0.18,0.86-0.06
	c0.39-0.36,0.58-0.56,0.95-0.96c0.02-0.03,0.05-0.06,0.07-0.08l0.05-0.07l0.05,0.07c0.02,0.02,0.04,0.05,0.06,0.07
	c0.38,0.41,0.57,0.6,0.96,0.97c0.27,0.24,0.66,0.28,0.86,0.07c0.08-0.08,0.12-0.19,0.12-0.31c0-0.17-0.09-0.35-0.25-0.5
	c-0.31-0.29-0.5-0.48-0.77-0.76l-0.1-0.1h1.91l-0.01,0.07C14.65,7.19,14.64,7.23,14.64,7.26z"/>
<g>
	<path class="st0" d="M41.95,20.14h-2.14c-0.69,0-1.81-0.36-1.81-1.59c0-0.06,0-0.1,0-0.16L38.85,9H34.9
		c-0.18,3.7-1.14,8.21-6.17,11.79l-1.67-1.55c4.52-2.55,5.66-6.78,5.88-10.24h-5.05V7.23h5.13V3.14h1.93v4.09h6.09L40.07,17.8
		c0,0.46,0.24,0.57,0.59,0.57h0.28c1.32,0,1.41-0.06,1.81-3.83l2.02,1.18C44.23,19.81,43.33,20.14,41.95,20.14z"/>
	<path class="st0" d="M47.44,14.19l-1.57-1.2c0,0,1.14-1.48,1.14-4.41c0-0.21,0-0.41-0.02-0.63h1.77c0,0.06,0,0.12,0,0.2
		C48.76,12.46,47.44,14.19,47.44,14.19z M48.03,20.81l-1.65-1.57c2.62-1.91,3.32-4.4,3.32-9.24V3.44h1.89V10
		C51.59,15.21,51.04,18.32,48.03,20.81z M55.2,19.85v-7.23l-1.53,0.88c0,0-0.79-2.89-1.69-4.97l1.63-0.67
		c0.83,1.93,1.3,3.46,1.59,4.44V4.16h1.89v15.69H55.2z M60.7,20.5v-7.9l-1.55,0.87c0,0-0.69-2.6-1.69-4.9l1.63-0.71
		c0.75,1.77,1.32,3.55,1.61,4.54V3.46h1.97V20.5H60.7z"/>
	<path class="st0" d="M67.86,9.69v0.41c0,4.4-0.04,8.1-1.99,10.73l-1.55-1.43c1.59-2.11,1.63-4.7,1.63-8.73c0-0.18,0-0.37,0-0.57V8
		h3.54c-0.27-0.59-0.75-1.41-1.16-2.1h-2.18V4.24h6.09v-1.1h2.2v1.1h6.13V5.9h-1.88c-0.31,0.78-0.71,1.53-1.04,2.1h4.09v1.69H67.86z
		 M68.57,20.18v-1.67h5.6v-1.78h-3.68v-1.52h3.68v-1.65h-3.11c-0.59,1-1.53,2.02-1.53,2.02l-1.42-1.3c0,0,1.73-1.47,2.53-3.93
		l1.81,0.59c-0.12,0.31-0.32,0.67-0.51,1.02h2.22V10.3h1.93v1.67h4.66v1.59H76.1v1.65h4.05v1.52H76.1v1.78h5.72v1.67H68.57z
		 M70.53,5.9c0.33,0.59,0.84,1.55,1.08,2.1h3.83c0.33-0.51,0.77-1.28,1.12-2.1H70.53z"/>
	<path class="st0" d="M100.56,20.3c-3.05-0.63-5.32-1.83-7.08-3.38v3.91h-2v-3.89c-1.61,1.61-3.89,2.73-6.78,3.38l-1.02-1.92
		c2.69-0.41,4.58-0.9,5.9-1.79h-5.42v-1.63h7.33v-1.33h-5.6v-1.46h5.6v-1.18h-6.31V9.51h3.97c-0.31-0.73-0.67-1.3-0.96-1.79h-4.05
		V6.07h2.61c-0.35-0.47-1.1-1.32-1.65-1.89l1.67-0.88c0.87,1.12,1.57,2.08,1.97,2.77h0.75V3.14h1.93v2.92h2.22V3.14h1.92v2.92h0.85
		c0.75-0.78,1.3-1.65,1.83-2.77l1.71,0.77c-0.39,0.75-0.98,1.53-1.47,2h2.44v1.65h-3.93c-0.2,0.55-0.59,1.2-0.9,1.79h3.79v1.49
		h-6.37v1.18h5.66v1.46h-5.66v1.33h7.41v1.63h-5.41c1.34,0.73,3.19,1.42,5.86,1.79L100.56,20.3z M90.34,7.72
		c0.23,0.47,0.55,1.14,0.81,1.79h2.79c0.43-0.61,0.75-1.28,0.88-1.79H90.34z"/>
	<path class="st0" d="M119.19,20.83c-3.79-2.26-6.39-5.76-7.54-8.83c-0.88,3.3-3.77,6.82-7.76,8.83l-1.24-1.85
		c5.42-2.44,7.37-6.64,7.72-9.53h-7.27V7.64h7.35v-4.5h2.04v4.5h7.37v1.81h-7.27c0,0,1.06,5.64,7.74,9.47L119.19,20.83z"/>
	<path class="st0" d="M136.96,10.73V8.45h-13.03v2.3H122V6.68h2.71c0,0-0.67-1.08-1.73-2.3l1.77-1.1c1.18,1.47,1.75,2.48,1.75,2.48
		l-1.44,0.92h4.46c0,0-0.61-1.06-1.73-2.35l1.79-1.06c1.14,1.43,1.73,2.48,1.73,2.48l-1.59,0.94h3.72c0,0,1.47-1.91,2.1-3.36
		l1.99,0.92c-0.51,0.87-1.2,1.81-1.73,2.44h3.09v4.05H136.96z M131.97,16.33v1.81c0,2.37-1.53,2.57-3.93,2.65l-0.79-1.86
		c0.49,0,0.93,0,1.28,0c1.06,0,1.51-0.08,1.51-0.78v-1.81h-7.98v-1.77h7.98v-1.49h1.04c1.08-0.47,2.06-1.26,2.06-1.26h-8.12v-1.77
		h10.81v1.71c0,0-1.44,1.57-3.89,2.75v0.06h6.92v1.77H131.97z"/>
</g>
<g>
	<path class="st0" d="M29.25,34.42h-1.34v-6.15h1.34V34.42z M33.38,34.42h-1.67l-2.44-3.38l2.21-2.77h1.62L30.68,31L33.38,34.42z"/>
	<path class="st0" d="M38.82,28.26l-2.39,3.77v2.39h-1.34v-2.39l-2.39-3.77h1.56l1.55,2.85l1.57-2.85H38.82z"/>
	<path class="st0" d="M44.68,31.87c0,1.8-0.91,2.7-2.72,2.7c-1.16,0-1.94-0.36-2.35-1.08c-0.22-0.38-0.33-0.93-0.33-1.65v-3.56h1.37
		v3.63c0,0.54,0.09,0.93,0.26,1.2c0.21,0.32,0.57,0.48,1.08,0.48c0.91,0,1.36-0.57,1.36-1.72v-3.59h1.34V31.87z"/>
	<path class="st0" d="M50.59,32.59c0,0.65-0.28,1.15-0.83,1.49c-0.47,0.3-1.05,0.44-1.74,0.44c-0.72,0-1.29-0.15-1.71-0.45
		c-0.48-0.34-0.72-0.85-0.73-1.55h1.34c0.02,0.69,0.4,1.04,1.13,1.04c0.31,0,0.57-0.07,0.79-0.21c0.25-0.16,0.37-0.38,0.37-0.67
		c0-0.28-0.17-0.49-0.53-0.64c-0.24-0.07-0.59-0.18-1.07-0.32c-0.61-0.19-1.04-0.37-1.29-0.55c-0.4-0.3-0.61-0.7-0.61-1.2
		c0-0.63,0.26-1.11,0.78-1.43c0.44-0.27,0.99-0.4,1.66-0.4c1.49,0,2.23,0.59,2.24,1.78h-1.34c-0.06-0.59-0.39-0.88-1.01-0.88
		c-0.27,0-0.5,0.07-0.68,0.2c-0.21,0.15-0.31,0.35-0.31,0.6c0,0.17,0.07,0.31,0.2,0.41c0.13,0.1,0.44,0.24,0.94,0.4
		c0.34,0.11,0.69,0.22,1.03,0.33c0.46,0.17,0.78,0.36,0.97,0.55C50.46,31.81,50.59,32.16,50.59,32.59z"/>
	<path class="st0" d="M56.92,34.42h-1.34v-2.63h-2.66v2.63h-1.34v-6.15h1.34v2.51h2.66v-2.51h1.34V34.42z"/>
	<path class="st0" d="M63.63,31.87c0,1.8-0.91,2.7-2.73,2.7c-1.16,0-1.94-0.36-2.35-1.08c-0.22-0.38-0.33-0.93-0.33-1.65v-3.56h1.37
		v3.63c0,0.54,0.09,0.93,0.26,1.2c0.21,0.32,0.57,0.48,1.08,0.48c0.91,0,1.36-0.57,1.36-1.72v-3.59h1.34V31.87z"/>
	<path class="st0" d="M72.2,32.59c0,0.65-0.28,1.15-0.83,1.49c-0.47,0.3-1.05,0.44-1.74,0.44c-0.72,0-1.29-0.15-1.71-0.45
		c-0.48-0.34-0.73-0.85-0.74-1.55h1.34c0.02,0.69,0.4,1.04,1.13,1.04c0.31,0,0.57-0.07,0.79-0.21c0.25-0.16,0.37-0.38,0.37-0.67
		c0-0.28-0.18-0.49-0.53-0.64c-0.24-0.07-0.59-0.18-1.06-0.32c-0.61-0.19-1.04-0.37-1.29-0.55c-0.41-0.3-0.61-0.7-0.61-1.2
		c0-0.63,0.26-1.11,0.78-1.43c0.44-0.27,0.99-0.4,1.66-0.4c1.49,0,2.23,0.59,2.24,1.78h-1.34c-0.06-0.59-0.39-0.88-1.01-0.88
		c-0.27,0-0.5,0.07-0.68,0.2c-0.2,0.15-0.3,0.35-0.3,0.6c0,0.17,0.06,0.31,0.2,0.41c0.13,0.1,0.44,0.24,0.94,0.4
		c0.34,0.11,0.69,0.22,1.03,0.33c0.45,0.17,0.78,0.36,0.97,0.55C72.08,31.81,72.2,32.16,72.2,32.59z"/>
	<path class="st0" d="M79,34.42h-1.47L77,33.01h-2.69l-0.53,1.41h-1.32l2.49-6.15h1.51L79,34.42z M76.65,32.11l-0.99-2.89
		l-1.03,2.89H76.65z"/>
	<path class="st0" d="M84.96,34.42h-1.87l-2.37-5.07v5.07h-1.15v-6.15h1.88l2.36,5.07v-5.07h1.15V34.42z"/>
	<path class="st0" d="M91.53,34.19c-0.84,0.23-1.63,0.34-2.36,0.34c-1,0-1.79-0.28-2.35-0.83c-0.56-0.56-0.85-1.34-0.85-2.34
		c0-0.98,0.28-1.76,0.84-2.35c0.56-0.59,1.32-0.89,2.29-0.89c1.51,0,2.32,0.65,2.43,1.93l-1.35,0c-0.09-0.62-0.48-0.94-1.16-0.94
		c-0.57,0-1,0.24-1.29,0.71c-0.24,0.39-0.37,0.89-0.37,1.5c0,0.65,0.14,1.18,0.44,1.58c0.32,0.45,0.8,0.68,1.43,0.68
		c0.38,0,0.72-0.04,1.03-0.13V32h-1.29v-0.91h2.56V34.19z"/>
	<path class="st0" d="M97.75,28.26l-2.38,3.77v2.39h-1.34v-2.39l-2.39-3.77h1.56l1.55,2.85l1.57-2.85H97.75z"/>
	<path class="st0" d="M103.55,31.34c0,0.95-0.25,1.72-0.74,2.29c-0.53,0.61-1.27,0.91-2.21,0.91c-0.95,0-1.68-0.3-2.2-0.89
		c-0.48-0.56-0.72-1.33-0.72-2.29c0-0.97,0.25-1.74,0.74-2.31c0.52-0.62,1.26-0.93,2.21-0.93c0.96,0,1.69,0.3,2.21,0.91
		C103.31,29.59,103.55,30.37,103.55,31.34z M102.22,31.32c0-0.62-0.11-1.12-0.34-1.51c-0.28-0.48-0.7-0.72-1.28-0.72
		c-0.56,0-0.98,0.25-1.25,0.73c-0.22,0.39-0.33,0.89-0.33,1.5c0,0.63,0.1,1.14,0.32,1.52c0.27,0.49,0.69,0.72,1.27,0.72
		c0.58,0,1.01-0.24,1.28-0.72C102.1,32.46,102.22,31.95,102.22,31.32z"/>
	<path class="st0" d="M112.51,31.87c0,1.8-0.91,2.7-2.73,2.7c-1.16,0-1.94-0.36-2.35-1.08c-0.22-0.38-0.33-0.93-0.33-1.65v-3.56
		h1.37v3.63c0,0.54,0.09,0.93,0.27,1.2c0.21,0.32,0.57,0.48,1.08,0.48c0.91,0,1.36-0.57,1.36-1.72v-3.59h1.34V31.87z"/>
	<path class="st0" d="M119.21,34.42h-1.88l-2.37-5.07v5.07h-1.14v-6.15h1.88l2.37,5.07v-5.07h1.15V34.42z"/>
	<path class="st0" d="M121.87,34.42h-1.33v-6.15h1.33V34.42z"/>
	<path class="st0" d="M128.53,28.28l-2.27,6.15h-1.57l-2.24-6.15h1.44l1.63,5.03l1.69-5.03H128.53z"/>
	<path class="st0" d="M133.37,34.42h-4.25v-6.15h4.16v0.96h-2.86v1.59h2.7v0.94h-2.7v1.7h2.94V34.42z"/>
	<path class="st0" d="M139.3,34.42h-1.39c-0.08-0.21-0.13-0.47-0.16-0.79c-0.03-0.27-0.06-0.53-0.08-0.8
		c-0.04-0.39-0.12-0.66-0.24-0.79c-0.14-0.15-0.4-0.22-0.78-0.22h-0.99v2.59h-1.33v-6.15h2.36c0.66,0,1.15,0.07,1.48,0.2
		c0.66,0.27,0.99,0.72,0.99,1.35c0,0.81-0.46,1.31-1.4,1.49v0.01c0.35,0.02,0.62,0.1,0.79,0.24c0.18,0.14,0.3,0.37,0.37,0.69
		c0.02,0.07,0.05,0.28,0.09,0.61c0.03,0.26,0.06,0.52,0.1,0.79C139.15,33.97,139.21,34.22,139.3,34.42z M137.84,30.05
		c0-0.56-0.44-0.84-1.34-0.84h-0.85v1.72h0.75c0.43,0,0.75-0.04,0.96-0.13C137.69,30.67,137.84,30.42,137.84,30.05z"/>
	<path class="st0" d="M144.96,32.59c0,0.65-0.27,1.15-0.83,1.49c-0.46,0.3-1.05,0.44-1.74,0.44c-0.73,0-1.29-0.15-1.71-0.45
		c-0.48-0.34-0.72-0.85-0.73-1.55h1.34c0.02,0.69,0.4,1.04,1.13,1.04c0.31,0,0.57-0.07,0.79-0.21c0.25-0.16,0.37-0.38,0.37-0.67
		c0-0.28-0.18-0.49-0.53-0.64c-0.24-0.07-0.6-0.18-1.07-0.32c-0.61-0.19-1.04-0.37-1.29-0.55c-0.4-0.3-0.6-0.7-0.6-1.2
		c0-0.63,0.26-1.11,0.78-1.43c0.44-0.27,0.99-0.4,1.66-0.4c1.49,0,2.23,0.59,2.24,1.78h-1.34c-0.06-0.59-0.39-0.88-1.01-0.88
		c-0.27,0-0.49,0.07-0.68,0.2c-0.21,0.15-0.31,0.35-0.31,0.6c0,0.17,0.07,0.31,0.2,0.41c0.13,0.1,0.45,0.24,0.95,0.4
		c0.34,0.11,0.68,0.22,1.03,0.33c0.46,0.17,0.78,0.36,0.98,0.55C144.83,31.81,144.96,32.16,144.96,32.59z"/>
	<path class="st0" d="M147.3,34.42h-1.34v-6.15h1.34V34.42z"/>
	<path class="st0" d="M153.14,29.25h-1.93v5.17h-1.34v-5.17h-1.92v-0.97h5.18V29.25z"/>
	<path class="st0" d="M158.46,28.26l-2.39,3.77v2.39h-1.34v-2.39l-2.39-3.77h1.55l1.55,2.85l1.57-2.85H158.46z"/>
</g>
<path class="st1" d="M12.38,9.53l0.31-0.19c0.09-0.05,0.15-0.14,0.17-0.23c0.02-0.07,0.01-0.15-0.03-0.21
	c-0.04-0.06-0.1-0.1-0.17-0.12c-0.09-0.02-0.2,0-0.29,0.05l-0.55,0.35l-0.55-0.35c-0.09-0.05-0.19-0.07-0.28-0.05
	c-0.07,0.02-0.14,0.06-0.17,0.12c-0.04,0.06-0.05,0.13-0.03,0.21c0.02,0.09,0.08,0.18,0.17,0.23l0.31,0.19l-0.31,0.19
	c-0.16,0.1-0.23,0.3-0.14,0.44c0.09,0.14,0.29,0.17,0.46,0.07l0.55-0.35l0.55,0.35c0.06,0.04,0.14,0.06,0.21,0.06
	c0.03,0,0.05,0,0.08-0.01c0.07-0.02,0.13-0.06,0.17-0.12c0.09-0.14,0.02-0.34-0.14-0.44L12.38,9.53z"/>
<path class="st1" d="M12.69,11.24l-0.31-0.19l0.31-0.19c0.16-0.11,0.23-0.31,0.14-0.44c-0.04-0.06-0.1-0.1-0.17-0.12
	c-0.09-0.02-0.2,0-0.29,0.05l-0.55,0.34l-0.55-0.34c-0.09-0.06-0.19-0.08-0.28-0.05c-0.07,0.02-0.14,0.06-0.17,0.12
	c-0.09,0.14-0.02,0.34,0.14,0.44l0.31,0.19l-0.31,0.19c-0.09,0.06-0.15,0.14-0.17,0.24c-0.02,0.08-0.01,0.15,0.03,0.21
	c0.04,0.07,0.11,0.11,0.2,0.12c0.02,0,0.03,0,0.05,0c0.07,0,0.14-0.02,0.21-0.06l0.55-0.35l0.55,0.35c0.09,0.06,0.19,0.07,0.29,0.05
	c0.07-0.02,0.13-0.06,0.17-0.12c0.04-0.06,0.05-0.13,0.03-0.21C12.84,11.39,12.78,11.3,12.69,11.24z"/>
</svg>
