<?xml version="1.0" encoding="utf-8"?>
<!-- Generator: Adobe Illustrator 25.3.1, SVG Export Plug-In . SVG Version: 6.00 Build 0)  -->
<svg version="1.1" id="レイヤー_1" xmlns="http://www.w3.org/2000/svg" xmlns:xlink="http://www.w3.org/1999/xlink" x="0px"
	 y="0px" viewBox="0 0 249.2 36.9" style="enable-background:new 0 0 249.2 36.9;" xml:space="preserve">
<style type="text/css">
	.st0{fill:#FFFFFF;}
	.st1{fill:#696969;}
</style>
<g>
	<polygon class="st0" points="5.8,36.3 8.1,36.3 6.1,32 6.1,32 7.7,28.3 5.6,28.3 4.1,31.8 4,31.8 4,28.3 2,28.3 2,36.3 4,36.3 
		4,32.4 4.1,32.4 	"/>
	<path class="st0" d="M18.8,36.5c1.6,0,2.9-1.3,3-2.9v0c0,0,0,0,0,0v0v0v-5.2h-2.1v5.3c0,0.5-0.4,0.8-0.8,0.8
		c-0.5,0-0.8-0.4-0.8-0.8v-5.3h-2.1v5.3v0v0C15.9,35.2,17.2,36.5,18.8,36.5z"/>
	<path class="st0" d="M12.9,32.8c0-0.1-0.1-0.4-0.2-0.6l0,0v0c0,0-0.4-0.9-0.4-1.3c0-0.8,0.6-1.3,0.8-1.4l-1-1.7
		c-0.2,0.1-1.1,0.5-1.6,1.8c-0.2,0.6-0.3,1.4-0.2,2c0.1,0.2,0.2,0.6,0.2,0.6c0.2,0.5,0.4,0.9,0.4,1.3c0,0.8-0.6,1.4-0.8,1.5l1,1.7
		c0.2-0.1,1.1-0.6,1.6-1.9C12.9,34.3,13,33.5,12.9,32.8z"/>
</g>
<path class="st0" d="M9.4,18.4c-0.3-0.2-1.8-1.1-2.7-2.6c-0.3,0-4.9-0.9-6.6-5.6c-0.1,0.6-0.3,3.9,2.2,6.3l0,0l0,0
	c0,0-0.8,0.3-1.3,0.3c0.5,0.3,3.2,2,6.1,2C7.9,18.9,8.7,18.7,9.4,18.4z"/>
<path class="st0" d="M5.5,12.2C5.2,12,1.8,10.1,2,5.2c-0.2,0.5-1.3,2.7-0.9,5.3l0,0l0,0c0,0-0.6-0.3-0.9-0.5
	c0.2,0.7,1.7,4.3,6.2,5.2C6.2,15,5.6,13.7,5.5,12.2z"/>
<path class="st0" d="M5.3,2.1C5,2.3,3.5,3.7,2.7,5.9l0,0l0,0c0,0-0.3-0.4-0.5-0.7c0,0.7,0,4.6,3.3,6.5c0-0.3-0.1-2,0.4-3.4
	C5.6,8.1,3.9,5.5,5.3,2.1z"/>
<path class="st0" d="M5.7,3L5.7,3L5.7,3C5.6,3,5.5,2.5,5.5,2C5.2,2.5,4.1,5,5.9,7.8C6,7.5,6.5,6.2,7.3,5.3c0-0.2-0.5-2.3,1.3-4.7
	C8.2,0.7,6.7,1.4,5.7,3z"/>
<path class="st0" d="M7.7,4.9c0.2-0.2,0.9-1,1.9-1.7C9.6,3,10,1.6,11.6,0c-0.4,0.1-1.7,0.4-2.9,1.3l0,0l0,0c0,0-0.1-0.3,0-0.8
	C8.4,0.9,7.2,2.7,7.7,4.9z"/>
<path class="st0" d="M9.9,2.9c0.2-0.2,1.3-0.7,1.9-1c0.1-0.1,0.5-1.1,2.1-1.7c-0.1,0-0.1,0-0.3,0c-0.4,0-1.3,0.1-1.9,0.5l0,0V0.8
	c0,0,0-0.3,0.1-0.7C11.5,0.3,10.5,1.2,9.9,2.9z"/>
<path class="st0" d="M12.2,1.9c0.4-0.1,2.1-0.7,4-0.9C16,0.9,15.6,0.7,15,0.7c-0.3,0-0.6,0-1,0.1l0,0l0,0c0,0,0-0.2,0.1-0.4
	C13.8,0.4,12.8,0.8,12.2,1.9z"/>
<path class="st0" d="M5.9,22c0.9,0.1,1.8,0.2,2.6,0.2l0,0c4.1,0,5.6-1.8,5.7-2.1c-2.3-0.3-4.1-1.3-4.2-1.4c-0.7,0.4-1.6,0.6-2.5,0.6
	c-2.9,0-5.8-1.9-6.4-2.3c2.5,3.9,5.8,4.3,5.8,4.3l0.1,0l-0.1,0C6.5,21.6,6,21.9,5.9,22z"/>
<path class="st0" d="M15.1,20.3c-1.5,1.8-4.2,2.2-6.2,2.2c-1.4,0-2.5-0.2-2.9-0.2c2.1,1.2,4.3,1.7,6.7,1.5c4.8-0.3,5.7-3.2,5.8-3.6
	c-0.7,0.1-1.4,0.2-2.1,0.2C15.6,20.3,15.2,20.3,15.1,20.3z"/>
<path class="st0" d="M18.9,20.1c-0.5,1.4-1.5,2.2-2.1,2.6c2.6-1.2,4.3-3.4,5-4.3C20.5,19.8,19.1,20,18.9,20.1z"/>
<g>
	<path class="st0" d="M22.3,13.5c0.7,1.8,0.3,3.1,0.1,3.8c0.7-1.3,1.1-3.5,1.1-3.8L22.3,13.5z"/>
</g>
<g>
	<path class="st0" d="M16.4,20.1c1.5,0,2.8-0.2,3.5-0.7c0.1-0.1,3.5-1.5,2.5-5.3c-0.5-2-2.4-2.2-3.4-2.2c-0.7,0-1.2,0.1-1.4,0.2
		c-0.6,0.2-1.5,0.9-1.7,1.1c0.2,0.1,1.1,0.9,1.5,1.4c0.1-0.2,0.8-1.1,1.8-1.1c0.2,0,0.3,0,0.5,0.1c1.7,0.5,1.5,2,1.4,2.3
		c-0.2,0.9-0.9,2.9-4.5,3.3c-0.4,0-0.8,0.1-1.2,0.1C11.7,19.2,7,17.5,6,13c-0.6-2.6-0.1-5,1.2-7.1c1.2-1.8,3.1-3.3,5.6-4.2
		C12,2.1,10.8,2.6,9.6,3.4c-2,1.4-4.4,4-4.1,8.5C6,18.4,12.6,20.1,16.4,20.1z"/>
</g>
<path class="st0" d="M16.1,1.1C16,1.1,16,1.1,16.1,1.1c-1.1,0-3.5,0.9-3.8,1c0.4,0.3,1.1,0.4,1.5,0.4c0.3,0,0.6,0,0.7,0
	C14.2,2.3,14.3,2,14.3,2v0h0C15.5,1.9,15.9,1.3,16.1,1.1z"/>
<path class="st0" d="M13.8,2.7c-1,0-1.7-0.3-1.8-0.4c-0.7,0.2-1.6,0.9-1.8,1c0.5,0.5,1.2,0.6,1.8,0.6c0.4,0,0.8-0.1,0.9-0.1
	c-0.2-0.1-0.4-0.2-0.4-0.2l-0.1,0l0.1,0c1.5-0.2,2-0.7,2.1-0.9C14.2,2.7,14,2.7,13.8,2.7z"/>
<path class="st0" d="M7.9,5.2c0.1,0.1,0.8,0.5,2.3,0.5c2,0,2.6-1.5,2.6-1.8c-0.4,0.1-0.8,0.2-1.1,0.2c-1.1,0-1.9-0.5-2-0.5
	C9,4,8.1,5.1,7.9,5.2z"/>
<path class="st0" d="M9.9,5.8c-1.1,0-2.1-0.3-2.2-0.3c-0.8,1-1.3,2.4-1.3,2.6c0.2,0.1,0.5,0.1,0.8,0.1c0.5,0,0.9-0.1,0.9-0.1
	l0.3-0.2l0.2-0.8h0l3.1-1l-0.6-0.3C10.7,5.8,10.3,5.8,9.9,5.8z"/>
<path class="st0" d="M6,11.7c1.3-0.1,1.9-0.6,2-0.7V8.3C7.3,8.5,6.4,8.5,6.2,8.5C5.8,10,6,11.5,6,11.7z"/>
<path class="st0" d="M8,14.8l0-3.5c-0.8,0.6-1.8,0.8-1.9,0.9c0.3,2,1,3,1.1,3.1C7.6,15.1,7.9,14.8,8,14.8z"/>
<path class="st0" d="M8.1,14.9C8,15,7.8,15.2,7.4,15.6c0.1,0.2,1,1.5,2.8,2.3c0.1-0.1,0.6-1,0.7-2L8.1,14.9z"/>
<path class="st0" d="M14.7,18.9c0.3-1.1-0.1-2.9-0.2-3.1l-3.5,0c0,0.9-0.3,2-0.3,2.2C12.7,18.9,14.2,19,14.7,18.9
	C14.7,18.9,14.7,18.9,14.7,18.9z"/>
<path class="st0" d="M14.6,15.6c0.7,1.4,0.8,3.1,0.8,3.4c2,0.1,3.3-0.5,3.4-0.6c0.3-2.8-3-5.1-3.4-5.3L14.6,15.6z"/>
<path class="st0" d="M18.9,13.6c-0.1,0-0.8,0.3-1.3,1.1c0.1,0.2,1.6,1.8,1.4,3.6c0.3-0.2,2.1-1.2,2-2.9c0-1.3-1.1-1.8-1.8-1.8
	C19.1,13.6,19,13.6,18.9,13.6z"/>
<path class="st0" d="M18.3,9.5c-0.3-0.1-1.8-0.9-2.5-3.1l-0.4,0.1l0,5.8l0.4-0.1C15.9,12.1,16.5,10.2,18.3,9.5z"/>
<path class="st0" d="M19.1,6.9c-1-0.4-2.3-0.5-2.8-0.5c-0.1,0-0.1,0-0.1,0c0.5,2.2,2.1,3,2.2,3c0.7-0.4,1.6-0.4,2-0.3
	C19.5,8.7,19.2,7.1,19.1,6.9z"/>
<path class="st0" d="M19.5,7.1c0,0.3,0.4,1.7,1.2,2.1c0,0,1.4,0.3,2.5,0.9C23,9.7,21.9,8.2,19.5,7.1z"/>
<path class="st0" d="M15.6,6.1c-0.7,0-1.5,0.1-2.2,0.2L15,6.5c0,0,0.6-0.2,1.6-0.2c1.5,0,3.7,0.5,5.9,2.7C21.5,8,19.3,6.1,15.6,6.1z
	"/>
<path class="st0" d="M20.9,6.4c-0.6,0-1.1,0.2-1.2,0.3c2.1,0.9,3.4,2.7,3.7,3.1c-0.2-1.9-0.9-3-0.9-3C21.9,6.6,21.4,6.4,20.9,6.4z"
	/>
<path class="st0" d="M20.9,4.7c0,0-0.4-0.1-1-0.1c-1,0-2.3,0.2-3.4,1.4c0.3,0,1.6,0.1,2.8,0.6c0.1,0,0.7-0.3,1.4-0.3
	c0.6,0,1.2,0.2,1.8,0.5C22.1,6.4,21.4,5.1,20.9,4.7z"/>
<g>
	<path class="st0" d="M19.2,3.1c-0.2-0.1-0.7-0.2-1.4-0.2c-0.9,0-4.1,0.2-5.9,2.8l0.4,0.7c0.2-0.1,1.4-0.5,3.4-0.4
		c0.1-0.1,1.5-1.5,3.9-1.5c0.2,0,0.4,0,0.6,0.1c0,0,0,0,0,0c0.2,0,0.3,0,0.5,0.1C20.6,4.3,19.8,3.4,19.2,3.1z"/>
	<path class="st0" d="M12.3,5.1C12.3,5.1,12.3,5.2,12.3,5.1C12.3,5.2,12.3,5.1,12.3,5.1z"/>
</g>
<path class="st0" d="M17.5,2.7c0.5,0,1,0,1.5,0.1c-0.3-0.2-1.6-1.1-2.9-1.5c-0.1,0.1-0.8,0.8-1.6,0.8l0,0c0,0.1,0.1,0.3,0.3,0.4l0,0
	l0,0c0,0-0.4,0.9-1.9,1.1c0.1,0,0.1,0.1,0.3,0.2C13.2,3.7,15,2.7,17.5,2.7z"/>
<path class="st0" d="M17,2.8c-0.8,0-2.3,0.2-4,1.1c0,0-0.1,0.3-0.2,0.5C13.2,4.1,14.5,3.1,17,2.8z"/>
<path class="st0" d="M19.2,4.5c-0.8,0.1-2.1,0.3-3.3,1.4c0.1,0,0.2,0,0.3,0C16.3,5.8,17.2,4.7,19.2,4.5z"/>
<path class="st0" d="M21,6.4c-0.1,0-0.2,0-0.4,0c-0.4,0-0.9,0.1-1.3,0.3l0.2,0.1c0.1-0.1,0.5-0.3,1.3-0.3C20.9,6.4,20.9,6.4,21,6.4z
	"/>
<path class="st0" d="M19.2,7c0.2,0.9,0.5,1.5,0.8,1.7C19.6,8,19.4,7.2,19.4,7C19.4,7,19.3,7,19.2,7z"/>
<path class="st0" d="M16.1,6.5c-0.1,0-0.2,0-0.2,0c0.3,1,0.8,1.7,1.3,2.1C16.4,7.7,16.2,6.6,16.1,6.5z"/>
<path class="st0" d="M12.1,2.2c0.2,0.1,0.4,0.2,0.7,0.2C12.4,2.4,12.2,2.2,12.1,2.2C12.1,2.2,12.1,2.2,12.1,2.2z"/>
<path class="st0" d="M12.1,1.9c0-0.1,0.2-0.4,0.6-0.8C12.4,1.3,12.2,1.6,12.1,1.9C12,1.9,12,1.9,12.1,1.9z"/>
<path class="st0" d="M9.9,3.5c0.5,0.3,1.1,0.5,1.5,0.5c-0.8-0.2-1.2-0.5-1.3-0.6C10,3.4,9.9,3.4,9.9,3.5z"/>
<path class="st0" d="M9.7,3.1L9.8,3c0-0.1,0.1-0.6,0.6-1.4C10.2,2,9.9,2.5,9.7,3.1z"/>
<path class="st0" d="M9,5.7c-0.7-0.1-1-0.3-1.1-0.4c0,0-0.1,0.1-0.1,0.1C8.2,5.6,8.7,5.7,9,5.7z"/>
<path class="st0" d="M6.3,8.2L6.3,8.4h0.1c0.5,0,1-0.1,1.2-0.1c-0.2,0-0.3,0-0.5,0C6.7,8.3,6.4,8.2,6.3,8.2z"/>
<path class="st0" d="M7.3,11.5c-0.6,0.2-1.2,0.3-1.3,0.3C6,11.9,6,12,6,12C6.6,11.9,7.1,11.7,7.3,11.5z"/>
<path class="st0" d="M7.3,15.5c0.1-0.1,0.6-0.4,0.7-0.6v0c-0.1,0.1-0.4,0.3-0.8,0.5C7.2,15.4,7.3,15.5,7.3,15.5z"/>
<path class="st0" d="M11,16.2c-0.1,0.4-0.3,1.2-0.6,1.8c0,0,0.1,0.1,0.3,0.1C10.7,17.9,11,16.9,11,16.2z"/>
<path class="st0" d="M14.7,16.2c0.1,0.6,0.4,1.8,0.2,2.7c0.1,0,0.2,0,0.4,0C15.2,18.7,15.1,17.3,14.7,16.2z"/>
<path class="st0" d="M7.7,2.4C7.5,3,7.2,4,7.4,5.2C7.4,5.1,7.5,5,7.6,5C7.5,4.8,7.3,3.9,7.7,2.4z"/>
<path class="st0" d="M5.8,8C5.8,7.9,5.1,7.1,4.9,5.4C5,6.1,5.2,7.1,5.8,8.1L5.8,8z"/>
<path class="st0" d="M2.6,8.6C3,9.6,3.8,11,5.4,12c0-0.1,0-0.2,0-0.2C5.2,11.7,3.6,10.9,2.6,8.6z"/>
<path class="st0" d="M2,13.2c0.7,0.7,2.1,1.9,4.5,2.5c0-0.1-0.1-0.2-0.1-0.2C6.2,15.4,4.1,15.1,2,13.2z"/>
<path class="st0" d="M7.2,19c-1.1,0-2.2-0.2-3.4-0.6c0.7,0.3,2.1,0.8,3.6,0.8c0.9,0,1.7-0.2,2.5-0.5c-0.1,0-0.2-0.1-0.3-0.2
	C9.4,18.6,8.6,19,7.2,19z"/>
<path class="st0" d="M18.8,20.1c-0.1,0-0.1,0-0.2,0c-0.1,0.7-0.6,1.3-1,1.7C18.4,21.2,18.7,20.3,18.8,20.1z"/>
<path class="st0" d="M10.2,22.2c3.2-0.3,4.5-1.8,4.6-2c-0.2,0-0.4,0-0.5,0C13.5,21.6,11.4,22.1,10.2,22.2z"/>
<path class="st0" d="M16.1,6.7c0-0.4-0.4-0.8-0.8-0.8h-2.4c-0.1-0.4-0.6-0.7-1-0.7s-0.9,0.3-1,0.7H8.4c-0.4,0-0.8,0.4-0.8,0.8v1.7
	c0,0.3,0.1,0.6,0.3,0.7C7.7,9.3,7.6,9.5,7.6,9.8v1.4c0,0.3,0.1,0.6,0.3,0.7c-0.2,0.1-0.3,0.4-0.3,0.7v2.9c0,0.5,0.4,0.9,0.9,0.9
	c0.2,0,0.5-0.1,0.7-0.3c0.1,0.1,0.3,0.2,0.5,0.2h1.3c0,0.5,0.4,0.9,0.9,0.9s0.9-0.4,0.9-0.9h1.4c0.2,0,0.3-0.1,0.4-0.2
	c0.2,0.1,0.4,0.2,0.6,0.2c0.5,0,0.9-0.4,0.9-0.9v-2.9c0-0.3-0.1-0.5-0.3-0.7c0.2-0.2,0.3-0.4,0.3-0.7V9.8c0-0.3-0.1-0.6-0.3-0.7
	c0.2-0.2,0.3-0.4,0.3-0.7L16.1,6.7L16.1,6.7z"/>
<path class="st1" d="M11.8,17.4c-0.5,0-0.9-0.4-1-0.9H9.6c-0.2,0-0.3-0.1-0.5-0.2c-0.2,0.1-0.4,0.2-0.6,0.2c-0.6,0-1-0.5-1-1v-2.9
	c0-0.2,0.1-0.5,0.3-0.7c-0.2-0.2-0.3-0.4-0.3-0.7V9.8c0-0.3,0.1-0.5,0.3-0.7C7.6,8.9,7.5,8.6,7.5,8.4V6.7c0-0.5,0.4-0.9,0.9-0.9h2.4
	c0.2-0.4,0.6-0.7,1.1-0.7c0.5,0,0.9,0.3,1.1,0.7h2.4c0.5,0,0.9,0.4,0.9,0.9v1.7c0,0.3-0.1,0.5-0.3,0.7c0.2,0.2,0.3,0.4,0.3,0.7v1.4
	c0,0.3-0.1,0.5-0.3,0.7c0.2,0.2,0.3,0.4,0.3,0.7v2.9c0,0.6-0.5,1-1,1c-0.2,0-0.4-0.1-0.6-0.2c-0.1,0.1-0.3,0.1-0.4,0.1h-1.3
	C12.8,17,12.3,17.4,11.8,17.4z M9.1,16L9.1,16c0.2,0.2,0.3,0.3,0.5,0.3H11l0,0.1c0,0.4,0.4,0.8,0.8,0.8s0.8-0.3,0.8-0.8l0-0.1h1.5
	c0.1,0,0.3-0.1,0.4-0.1l0.1-0.1l0.1,0.1c0.1,0.1,0.3,0.2,0.5,0.2c0.4,0,0.8-0.4,0.8-0.8v-2.9c0-0.2-0.1-0.4-0.3-0.6l-0.1-0.1
	l0.1-0.1c0.2-0.2,0.3-0.4,0.3-0.6V9.8c0-0.2-0.1-0.5-0.3-0.6l-0.1-0.1L15.7,9C15.9,8.9,16,8.6,16,8.4V6.7C16,6.3,15.7,6,15.3,6h-2.5
	l0-0.1c-0.1-0.4-0.5-0.7-0.9-0.7S11,5.5,10.9,5.9l0,0.1H8.4C8,6,7.7,6.3,7.7,6.7v1.7C7.7,8.6,7.8,8.8,8,9l0.1,0.1L8,9.2
	C7.8,9.3,7.7,9.6,7.7,9.8v1.4c0,0.2,0.1,0.5,0.3,0.6l0.1,0.1L8,12c-0.2,0.1-0.3,0.4-0.3,0.6v2.9c0,0.5,0.4,0.8,0.8,0.8
	C8.7,16.3,8.9,16.2,9.1,16L9.1,16z"/>
<path class="st1" d="M15.2,16c0.3,0,0.5-0.2,0.5-0.5v-2.9c0-0.2-0.2-0.4-0.4-0.4H8.4c-0.2,0-0.4,0.2-0.4,0.4v2.9
	C8,15.8,8.2,16,8.5,16C8.8,16,9,15.8,9,15.5v-2.6h5.6v2.6C14.6,15.8,14.9,16,15.2,16z"/>
<path class="st1" d="M9.9,10.2H9V9.8h0.9c0.1,0,0.2-0.1,0.2-0.2S10,9.3,9.9,9.3H8.5C8.2,9.3,8,9.5,8,9.8v1.4c0,0.3,0.2,0.5,0.5,0.5
	h1.4c0.1,0,0.2-0.1,0.2-0.3s-0.1-0.2-0.2-0.2H9v-0.4h0.9c0.1,0,0.2-0.1,0.2-0.2C10.1,10.4,10.1,10.2,9.9,10.2z"/>
<path class="st1" d="M13.7,11.7h1.4c0.3,0,0.5-0.2,0.5-0.5V9.8c0-0.3-0.2-0.5-0.5-0.5h-1.4c-0.1,0-0.2,0.1-0.2,0.3s0.1,0.2,0.2,0.2
	h0.9v0.4h-0.9c-0.1,0-0.2,0.1-0.2,0.2s0.1,0.2,0.2,0.2h0.9v0.4h-0.9c-0.1,0-0.2,0.1-0.2,0.2C13.5,11.6,13.6,11.7,13.7,11.7z"/>
<path class="st1" d="M11.8,16.9c0.3,0,0.5-0.2,0.5-0.5V16h1.8c0.1,0,0.2-0.1,0.2-0.3v-2c0-0.2-0.2-0.4-0.4-0.4
	c-0.2,0-0.4,0.2-0.4,0.4v1.7h-1.2V15h0.6c0.1,0,0.2-0.1,0.2-0.2v-1.1c0-0.1-0.1-0.3-0.2-0.3h-2.2c-0.1,0-0.2,0.1-0.2,0.3v1.1
	c0,0.1,0.1,0.2,0.2,0.2h0.6v0.5h-1.1v-1.7c0-0.2-0.2-0.4-0.4-0.4s-0.4,0.2-0.4,0.4v2c0,0.1,0.1,0.3,0.2,0.3h1.7v0.4
	C11.3,16.6,11.5,16.9,11.8,16.9z M11.2,14.5v-0.6h1.4v0.6H11.2z"/>
<path class="st1" d="M14.6,7.3v1.1c0,0.3,0.2,0.5,0.5,0.5c0.3,0,0.5-0.2,0.5-0.5V6.7c0-0.2-0.2-0.4-0.4-0.4h-2.8V6.2
	c0-0.4-0.3-0.7-0.7-0.7s-0.7,0.3-0.7,0.7v0.1H8.4C8.1,6.3,8,6.5,8,6.7v1.7c0,0.3,0.2,0.5,0.5,0.5C8.8,8.9,9,8.7,9,8.4V7.3
	c0,0,0-0.1,0-0.1l0-0.1h1.9l-0.1,0.1c-0.3,0.3-0.5,0.5-0.8,0.8C9.9,8.1,9.8,8.3,9.8,8.4c0,0.1,0,0.2,0.1,0.3
	c0.2,0.2,0.6,0.2,0.9-0.1c0.4-0.4,0.6-0.6,0.9-1c0,0,0.1-0.1,0.1-0.1l0.1-0.1l0.1,0.1c0,0,0,0.1,0.1,0.1c0.4,0.4,0.6,0.6,1,1
	c0.3,0.2,0.7,0.3,0.9,0.1c0.1-0.1,0.1-0.2,0.1-0.3c0-0.2-0.1-0.4-0.2-0.5c-0.3-0.3-0.5-0.5-0.8-0.8l-0.1-0.1h1.9l0,0.1
	C14.6,7.2,14.6,7.2,14.6,7.3z"/>
<g>
	<path class="st0" d="M42,20.1h-2.1c-0.7,0-1.8-0.4-1.8-1.6c0-0.1,0-0.1,0-0.2L38.8,9h-3.9c-0.2,3.7-1.1,8.2-6.2,11.8l-1.7-1.5
		c4.5-2.5,5.7-6.8,5.9-10.2h-5V7.2H33V3.1H35v4.1H41l-1,10.6c0,0.5,0.2,0.6,0.6,0.6h0.3c1.3,0,1.4-0.1,1.8-3.8l2,1.2
		C44.2,19.8,43.3,20.1,42,20.1z"/>
	<path class="st0" d="M47.4,14.2L45.9,13c0,0,1.1-1.5,1.1-4.4c0-0.2,0-0.4,0-0.6h1.8c0,0.1,0,0.1,0,0.2
		C48.8,12.5,47.4,14.2,47.4,14.2z M48,20.8l-1.7-1.6c2.6-1.9,3.3-4.4,3.3-9.2V3.4h1.9V10C51.6,15.2,51,18.3,48,20.8z M55.2,19.9
		v-7.2l-1.5,0.9c0,0-0.8-2.9-1.7-5l1.6-0.7c0.8,1.9,1.3,3.5,1.6,4.4V4.2h1.9v15.7C57.1,19.8,55.2,19.8,55.2,19.9z M60.7,20.5v-7.9
		l-1.5,0.9c0,0-0.7-2.6-1.7-4.9l1.6-0.7c0.8,1.8,1.3,3.6,1.6,4.5V3.5h2v17H60.7z"/>
	<path class="st0" d="M67.9,9.7v0.4c0,4.4,0,8.1-2,10.7l-1.6-1.4c1.6-2.1,1.6-4.7,1.6-8.7c0-0.2,0-0.4,0-0.6V8h3.5
		c-0.3-0.6-0.8-1.4-1.2-2.1h-2.2V4.2h6.1V3.1h2.2v1.1h6.1v1.7h-1.9c-0.3,0.8-0.7,1.5-1,2.1h4.1v1.7C81.7,9.7,67.9,9.7,67.9,9.7z
		 M68.6,20.2v-1.7h5.6v-1.8h-3.7v-1.5h3.7v-1.6h-3.1c-0.6,1-1.5,2-1.5,2l-1.4-1.3c0,0,1.7-1.5,2.5-3.9l1.8,0.6
		c-0.1,0.3-0.3,0.7-0.5,1h2.2v-1.7h1.9V12h4.7v1.6h-4.7v1.6h4.1v1.5h-4.1v1.8h5.7v1.7H68.6z M70.5,5.9c0.3,0.6,0.8,1.5,1.1,2.1h3.8
		c0.3-0.5,0.8-1.3,1.1-2.1H70.5z"/>
	<path class="st0" d="M100.6,20.3c-3.1-0.6-5.3-1.8-7.1-3.4v3.9h-2v-3.9c-1.6,1.6-3.9,2.7-6.8,3.4l-1-1.9c2.7-0.4,4.6-0.9,5.9-1.8
		h-5.4V15h7.3v-1.3h-5.6v-1.5h5.6V11h-6.3V9.5h4c-0.3-0.7-0.7-1.3-1-1.8h-4.1V6.1h2.6c-0.3-0.5-1.1-1.3-1.7-1.9l1.7-0.9
		c0.9,1.1,1.6,2.1,2,2.8h0.8V3.1h1.9v2.9h2.2V3.1h1.9v2.9h0.8c0.8-0.8,1.3-1.7,1.8-2.8l1.7,0.8c-0.4,0.8-1,1.5-1.5,2h2.4v1.7H97
		c-0.2,0.5-0.6,1.2-0.9,1.8h3.8V11h-6.4v1.2h5.7v1.5h-5.7V15h7.4v1.6h-5.4c1.3,0.7,3.2,1.4,5.9,1.8L100.6,20.3z M90.3,7.7
		c0.2,0.5,0.6,1.1,0.8,1.8h2.8c0.4-0.6,0.8-1.3,0.9-1.8C94.8,7.7,90.3,7.7,90.3,7.7z"/>
	<path class="st0" d="M119.2,20.8c-3.8-2.3-6.4-5.8-7.5-8.8c-0.9,3.3-3.8,6.8-7.8,8.8l-1.2-1.9c5.4-2.4,7.4-6.6,7.7-9.5h-7.3V7.6
		h7.3V3.1h2v4.5h7.4v1.8h-7.3c0,0,1.1,5.6,7.7,9.5L119.2,20.8z"/>
	<path class="st0" d="M137,10.7V8.4h-13v2.3H122V6.7h2.7c0,0-0.7-1.1-1.7-2.3l1.8-1.1c1.2,1.5,1.8,2.5,1.8,2.5l-1.4,0.9h4.5
		c0,0-0.6-1.1-1.7-2.3l1.8-1.1c1.1,1.4,1.7,2.5,1.7,2.5l-1.6,0.9h3.7c0,0,1.5-1.9,2.1-3.4l2,0.9c-0.5,0.9-1.2,1.8-1.7,2.4h3.1v4.1
		L137,10.7L137,10.7z M132,16.3v1.8c0,2.4-1.5,2.6-3.9,2.6l-0.8-1.9c0.5,0,0.9,0,1.3,0c1.1,0,1.5-0.1,1.5-0.8v-1.8h-8v-1.8h8v-1.5h1
		c1.1-0.5,2.1-1.3,2.1-1.3H125V10h10.8v1.7c0,0-1.4,1.6-3.9,2.8v0.1h6.9v1.8L132,16.3L132,16.3z"/>
</g>
<g>
	<path class="st0" d="M29.2,34.4h-1.3v-6.1h1.3V34.4z M33.4,34.4h-1.7L29.3,31l2.2-2.8h1.6L30.7,31L33.4,34.4z"/>
	<path class="st0" d="M38.8,28.3L36.4,32v2.4h-1.3V32l-2.4-3.8h1.6l1.5,2.9l1.6-2.9C37.4,28.3,38.8,28.3,38.8,28.3z"/>
	<path class="st0" d="M44.7,31.9c0,1.8-0.9,2.7-2.7,2.7c-1.2,0-1.9-0.4-2.3-1.1c-0.2-0.4-0.3-0.9-0.3-1.6v-3.6h1.4v3.6
		c0,0.5,0.1,0.9,0.3,1.2c0.2,0.3,0.6,0.5,1.1,0.5c0.9,0,1.4-0.6,1.4-1.7v-3.6h1.3L44.7,31.9L44.7,31.9z"/>
	<path class="st0" d="M50.6,32.6c0,0.7-0.3,1.2-0.8,1.5c-0.5,0.3-1,0.4-1.7,0.4c-0.7,0-1.3-0.2-1.7-0.5c-0.5-0.3-0.7-0.8-0.7-1.5
		h1.3c0,0.7,0.4,1,1.1,1c0.3,0,0.6-0.1,0.8-0.2c0.2-0.2,0.4-0.4,0.4-0.7c0-0.3-0.2-0.5-0.5-0.6c-0.2-0.1-0.6-0.2-1.1-0.3
		c-0.6-0.2-1-0.4-1.3-0.5c-0.4-0.3-0.6-0.7-0.6-1.2c0-0.6,0.3-1.1,0.8-1.4c0.4-0.3,1-0.4,1.7-0.4c1.5,0,2.2,0.6,2.2,1.8H49
		C49,29.3,48.7,29,48,29c-0.3,0-0.5,0.1-0.7,0.2c-0.2,0.1-0.3,0.4-0.3,0.6c0,0.2,0.1,0.3,0.2,0.4s0.4,0.2,0.9,0.4
		c0.3,0.1,0.7,0.2,1,0.3c0.5,0.2,0.8,0.4,1,0.5C50.5,31.8,50.6,32.2,50.6,32.6z"/>
	<path class="st0" d="M56.9,34.4h-1.3v-2.6h-2.7v2.6h-1.3v-6.1h1.3v2.5h2.7v-2.5h1.3V34.4z"/>
	<path class="st0" d="M63.6,31.9c0,1.8-0.9,2.7-2.7,2.7c-1.2,0-1.9-0.4-2.3-1.1c-0.2-0.4-0.3-0.9-0.3-1.6v-3.6h1.4v3.6
		c0,0.5,0.1,0.9,0.3,1.2c0.2,0.3,0.6,0.5,1.1,0.5c0.9,0,1.4-0.6,1.4-1.7v-3.6h1.3V31.9z"/>
	<path class="st0" d="M72.2,32.6c0,0.7-0.3,1.2-0.8,1.5c-0.5,0.3-1.1,0.4-1.7,0.4c-0.7,0-1.3-0.2-1.7-0.5c-0.5-0.3-0.7-0.8-0.7-1.5
		h1.3c0,0.7,0.4,1,1.1,1c0.3,0,0.6-0.1,0.8-0.2c0.2-0.2,0.4-0.4,0.4-0.7c0-0.3-0.2-0.5-0.5-0.6c-0.2-0.1-0.6-0.2-1.1-0.3
		c-0.6-0.2-1-0.4-1.3-0.5c-0.4-0.3-0.6-0.7-0.6-1.2c0-0.6,0.3-1.1,0.8-1.4c0.4-0.3,1-0.4,1.7-0.4c1.5,0,2.2,0.6,2.2,1.8h-1.3
		c-0.1-0.6-0.4-0.9-1-0.9c-0.3,0-0.5,0.1-0.7,0.2c-0.2,0.1-0.3,0.4-0.3,0.6c0,0.2,0.1,0.3,0.2,0.4c0.1,0.1,0.4,0.2,0.9,0.4
		c0.3,0.1,0.7,0.2,1,0.3c0.4,0.2,0.8,0.4,1,0.5C72.1,31.8,72.2,32.2,72.2,32.6z"/>
	<path class="st0" d="M79,34.4h-1.5L77,33h-2.7l-0.5,1.4h-1.3l2.5-6.1h1.5L79,34.4z M76.7,32.1l-1-2.9l-1,2.9H76.7z"/>
	<path class="st0" d="M85,34.4h-1.9l-2.4-5.1v5.1h-1.2v-6.1h1.9l2.4,5.1v-5.1H85C85,28.3,85,34.4,85,34.4z"/>
	<path class="st0" d="M91.5,34.2c-0.8,0.2-1.6,0.3-2.4,0.3c-1,0-1.8-0.3-2.3-0.8c-0.6-0.6-0.8-1.3-0.8-2.3c0-1,0.3-1.8,0.8-2.4
		s1.3-0.9,2.3-0.9c1.5,0,2.3,0.6,2.4,1.9h-1.3c-0.1-0.6-0.5-0.9-1.2-0.9c-0.6,0-1,0.2-1.3,0.7c-0.2,0.4-0.4,0.9-0.4,1.5
		c0,0.6,0.1,1.2,0.4,1.6c0.3,0.5,0.8,0.7,1.4,0.7c0.4,0,0.7,0,1-0.1V32H89v-0.9h2.6C91.5,31.1,91.5,34.2,91.5,34.2z"/>
	<path class="st0" d="M97.8,28.3L95.4,32v2.4H94V32l-2.4-3.8h1.6l1.6,2.9l1.6-2.9C96.3,28.3,97.8,28.3,97.8,28.3z"/>
	<path class="st0" d="M103.6,31.3c0,1-0.2,1.7-0.7,2.3c-0.5,0.6-1.3,0.9-2.2,0.9c-0.9,0-1.7-0.3-2.2-0.9c-0.5-0.6-0.7-1.3-0.7-2.3
		c0-1,0.2-1.7,0.7-2.3c0.5-0.6,1.3-0.9,2.2-0.9c1,0,1.7,0.3,2.2,0.9C103.3,29.6,103.6,30.4,103.6,31.3z M102.2,31.3
		c0-0.6-0.1-1.1-0.3-1.5c-0.3-0.5-0.7-0.7-1.3-0.7c-0.6,0-1,0.2-1.2,0.7c-0.2,0.4-0.3,0.9-0.3,1.5c0,0.6,0.1,1.1,0.3,1.5
		c0.3,0.5,0.7,0.7,1.3,0.7c0.6,0,1-0.2,1.3-0.7C102.1,32.5,102.2,32,102.2,31.3z"/>
	<path class="st0" d="M112.5,31.9c0,1.8-0.9,2.7-2.7,2.7c-1.2,0-1.9-0.4-2.3-1.1c-0.2-0.4-0.3-0.9-0.3-1.6v-3.6h1.4v3.6
		c0,0.5,0.1,0.9,0.3,1.2c0.2,0.3,0.6,0.5,1.1,0.5c0.9,0,1.4-0.6,1.4-1.7v-3.6h1.3L112.5,31.9L112.5,31.9z"/>
	<path class="st0" d="M119.2,34.4h-1.9l-2.4-5.1v5.1h-1.1v-6.1h1.9l2.4,5.1v-5.1h1.2L119.2,34.4L119.2,34.4z"/>
	<path class="st0" d="M121.9,34.4h-1.3v-6.1h1.3V34.4z"/>
	<path class="st0" d="M128.5,28.3l-2.3,6.1h-1.6l-2.2-6.1h1.4l1.6,5l1.7-5H128.5z"/>
	<path class="st0" d="M133.4,34.4h-4.2v-6.1h4.2v1h-2.9v1.6h2.7v0.9h-2.7v1.7h2.9L133.4,34.4L133.4,34.4z"/>
	<path class="st0" d="M139.3,34.4h-1.4c-0.1-0.2-0.1-0.5-0.2-0.8c0-0.3-0.1-0.5-0.1-0.8c0-0.4-0.1-0.7-0.2-0.8
		c-0.1-0.1-0.4-0.2-0.8-0.2h-1v2.6h-1.3v-6.1h2.4c0.7,0,1.1,0.1,1.5,0.2c0.7,0.3,1,0.7,1,1.4c0,0.8-0.5,1.3-1.4,1.5v0
		c0.4,0,0.6,0.1,0.8,0.2c0.2,0.1,0.3,0.4,0.4,0.7c0,0.1,0.1,0.3,0.1,0.6c0,0.3,0.1,0.5,0.1,0.8C139.1,34,139.2,34.2,139.3,34.4z
		 M137.8,30c0-0.6-0.4-0.8-1.3-0.8h-0.9v1.7h0.8c0.4,0,0.8,0,1-0.1C137.7,30.7,137.8,30.4,137.8,30z"/>
	<path class="st0" d="M145,32.6c0,0.7-0.3,1.2-0.8,1.5c-0.5,0.3-1.1,0.4-1.7,0.4c-0.7,0-1.3-0.2-1.7-0.5c-0.5-0.3-0.7-0.8-0.7-1.5
		h1.3c0,0.7,0.4,1,1.1,1c0.3,0,0.6-0.1,0.8-0.2c0.2-0.2,0.4-0.4,0.4-0.7c0-0.3-0.2-0.5-0.5-0.6c-0.2-0.1-0.6-0.2-1.1-0.3
		c-0.6-0.2-1-0.4-1.3-0.5c-0.4-0.3-0.6-0.7-0.6-1.2c0-0.6,0.3-1.1,0.8-1.4c0.4-0.3,1-0.4,1.7-0.4c1.5,0,2.2,0.6,2.2,1.8h-1.3
		c-0.1-0.6-0.4-0.9-1-0.9c-0.3,0-0.5,0.1-0.7,0.2c-0.2,0.1-0.3,0.4-0.3,0.6c0,0.2,0.1,0.3,0.2,0.4c0.1,0.1,0.4,0.2,0.9,0.4
		c0.3,0.1,0.7,0.2,1,0.3c0.5,0.2,0.8,0.4,1,0.5C144.8,31.8,145,32.2,145,32.6z"/>
	<path class="st0" d="M147.3,34.4H146v-6.1h1.3V34.4z"/>
	<path class="st0" d="M153.1,29.2h-1.9v5.2h-1.3v-5.2H148v-1h5.2L153.1,29.2L153.1,29.2z"/>
	<path class="st0" d="M158.5,28.3l-2.4,3.8v2.4h-1.3V32l-2.4-3.8h1.6l1.6,2.9l1.6-2.9C157,28.3,158.5,28.3,158.5,28.3z"/>
</g>
<path class="st1" d="M12.4,9.5l0.3-0.2c0.1-0.1,0.1-0.1,0.2-0.2c0-0.1,0-0.1,0-0.2s-0.1-0.1-0.2-0.1c-0.1,0-0.2,0-0.3,0.1l-0.6,0.4
	l-0.6-0.4c-0.1-0.1-0.2-0.1-0.3-0.1c-0.1,0-0.1,0.1-0.2,0.1c0,0.1-0.1,0.1,0,0.2c0,0.1,0.1,0.2,0.2,0.2l0.3,0.2L11,9.7
	c-0.2,0.1-0.2,0.3-0.1,0.4c0.1,0.1,0.3,0.2,0.5,0.1l0.6-0.4l0.6,0.4c0.1,0,0.1,0.1,0.2,0.1c0,0,0.1,0,0.1,0c0.1,0,0.1-0.1,0.2-0.1
	c0.1-0.1,0-0.3-0.1-0.4L12.4,9.5z"/>
<path class="st1" d="M12.7,11.2l-0.3-0.2l0.3-0.2c0.2-0.1,0.2-0.3,0.1-0.4c0-0.1-0.1-0.1-0.2-0.1c-0.1,0-0.2,0-0.3,0.1l-0.6,0.3
	l-0.6-0.3c-0.1-0.1-0.2-0.1-0.3-0.1c-0.1,0-0.1,0.1-0.2,0.1c-0.1,0.1,0,0.3,0.1,0.4l0.3,0.2L11,11.2c-0.1,0.1-0.1,0.1-0.2,0.2
	c0,0.1,0,0.1,0,0.2c0,0.1,0.1,0.1,0.2,0.1c0,0,0,0,0.1,0c0.1,0,0.1,0,0.2-0.1l0.6-0.4l0.6,0.4c0.1,0.1,0.2,0.1,0.3,0.1
	c0.1,0,0.1-0.1,0.2-0.1c0-0.1,0.1-0.1,0-0.2C12.8,11.4,12.8,11.3,12.7,11.2z"/>
<g>
	<path class="st0" d="M157.1,20.8c-3.8-2.3-6.4-5.7-7.5-8.8c-0.9,3.3-3.8,6.8-7.7,8.8l-1.2-1.8c5.4-2.4,7.4-6.6,7.7-9.5H141V7.6h7.3
		V3.1h2v4.5h7.4v1.8h-7.3c0,0,1.1,5.6,7.7,9.5L157.1,20.8z"/>
	<path class="st0" d="M174.5,10.7V8.4h-13v2.3h-1.9V6.7h2.7c0,0-0.7-1.1-1.7-2.3l1.8-1.1c1.2,1.5,1.7,2.5,1.7,2.5l-1.4,0.9h4.5
		c0,0-0.6-1.1-1.7-2.4l1.8-1.1c1.1,1.4,1.7,2.5,1.7,2.5l-1.6,0.9h3.7c0,0,1.5-1.9,2.1-3.4l2,0.9c-0.5,0.9-1.2,1.8-1.7,2.4h3.1v4
		H174.5z M169.5,16.3v1.8c0,2.4-1.5,2.6-3.9,2.6l-0.8-1.9h1.3c1.1,0,1.5-0.1,1.5-0.8v-1.8h-8v-1.8h8V13h1c1.1-0.5,2.1-1.3,2.1-1.3
		h-8.1V10h10.8v1.7c0,0-1.4,1.6-3.9,2.7v0.1h6.9v1.8H169.5z"/>
	<path class="st0" d="M178.3,20.8V3.7h5.5v1.8l-1.5,4c0.7,1.2,1.5,3.1,1.5,4.6c0,1.4-0.7,2.5-2.8,2.5l-0.7-1.9c1.1,0,1.8-0.1,1.8-1
		c0-0.7-0.5-2-1.6-4.2l1.3-4h-1.6v15.3H178.3z M192,20.4c0,0-1.7,0-1.7-1.9v-5h-1.7c0,4.2-1.3,6-4.2,7.4l-1.4-1.8
		c3-1,3.7-2.5,3.7-5.6h-2.2v-1.8H195v1.8h-2.8v4.7c0,0.5,0.3,0.5,0.4,0.5h0.3c0.6,0,0.8-0.5,0.8-2.6l1.8,0.8c0,2.9-1.1,3.5-2.3,3.5
		H192z M185.5,9.9V8.5h-1.3V4.6h4.1V3.1h2.1v1.5h4.6v3.9h-1.2v1.4H185.5z M193.1,6.4H186v1.7h7.1V6.4z"/>
</g>
<g>
	<path class="st0" d="M165.1,32.1v-1h2.7v2.4c-0.3,0.3-0.6,0.5-1.1,0.7c-0.5,0.2-1,0.3-1.5,0.3c-0.6,0-1.2-0.1-1.7-0.4
		c-0.5-0.3-0.8-0.7-1.1-1.2c-0.2-0.5-0.4-1-0.4-1.6c0-0.6,0.1-1.2,0.4-1.7c0.3-0.5,0.7-0.9,1.2-1.1c0.4-0.2,0.9-0.3,1.5-0.3
		c0.8,0,1.4,0.2,1.8,0.5c0.4,0.3,0.7,0.8,0.8,1.3l-1.2,0.2c-0.1-0.3-0.2-0.5-0.5-0.7c-0.2-0.2-0.5-0.3-0.9-0.3c-0.5,0-1,0.2-1.3,0.5
		c-0.3,0.3-0.5,0.9-0.5,1.5c0,0.7,0.2,1.3,0.5,1.6c0.3,0.4,0.7,0.5,1.3,0.5c0.3,0,0.5-0.1,0.8-0.2c0.3-0.1,0.5-0.2,0.7-0.4v-0.8
		H165.1z"/>
	<path class="st0" d="M168.5,34.4v-6.1h2.6c0.7,0,1.1,0.1,1.4,0.2c0.3,0.1,0.5,0.3,0.7,0.6c0.2,0.3,0.3,0.6,0.3,1
		c0,0.5-0.1,0.8-0.4,1.1c-0.3,0.3-0.7,0.5-1.2,0.6c0.3,0.2,0.5,0.3,0.7,0.5c0.2,0.2,0.4,0.5,0.7,1l0.7,1.2h-1.5l-0.9-1.3
		c-0.3-0.5-0.5-0.8-0.7-0.9c-0.1-0.1-0.2-0.2-0.4-0.3c-0.1,0-0.3-0.1-0.6-0.1h-0.3v2.6H168.5z M169.7,30.8h0.9c0.6,0,1,0,1.1-0.1
		c0.1-0.1,0.3-0.1,0.3-0.3c0.1-0.1,0.1-0.3,0.1-0.5c0-0.2-0.1-0.4-0.2-0.5c-0.1-0.1-0.3-0.2-0.5-0.2c-0.1,0-0.4,0-0.9,0h-1V30.8z"/>
	<path class="st0" d="M179.8,34.4h-1.3l-0.5-1.4h-2.5l-0.5,1.4h-1.3l2.4-6.1h1.3L179.8,34.4z M177.5,31.9l-0.8-2.3l-0.8,2.3H177.5z"
		/>
	<path class="st0" d="M180,28.2h2.3c0.5,0,0.9,0,1.2,0.1c0.4,0.1,0.7,0.3,0.9,0.6c0.3,0.3,0.5,0.6,0.6,1c0.1,0.4,0.2,0.9,0.2,1.4
		c0,0.5-0.1,0.9-0.2,1.3c-0.2,0.4-0.4,0.8-0.7,1.1c-0.2,0.2-0.5,0.4-0.9,0.5c-0.3,0.1-0.6,0.1-1.1,0.1H180V28.2z M181.2,29.3v4.1
		h0.9c0.3,0,0.6,0,0.7-0.1c0.2-0.1,0.4-0.1,0.5-0.3c0.1-0.1,0.2-0.3,0.3-0.6c0.1-0.3,0.1-0.6,0.1-1.1c0-0.5,0-0.8-0.1-1.1
		s-0.2-0.5-0.4-0.6c-0.2-0.1-0.3-0.2-0.6-0.3c-0.2,0-0.5-0.1-1-0.1H181.2z"/>
	<path class="st0" d="M185.7,28.2h1.2v3.3c0,0.5,0,0.9,0,1c0.1,0.3,0.2,0.5,0.4,0.6c0.2,0.2,0.5,0.2,0.8,0.2c0.4,0,0.6-0.1,0.8-0.2
		c0.2-0.1,0.3-0.3,0.3-0.5c0-0.2,0.1-0.6,0.1-1v-3.4h1.2v3.2c0,0.7,0,1.3-0.1,1.6c-0.1,0.3-0.2,0.6-0.4,0.8
		c-0.2,0.2-0.4,0.4-0.7,0.5c-0.3,0.1-0.7,0.2-1.2,0.2c-0.6,0-1-0.1-1.3-0.2c-0.3-0.1-0.5-0.3-0.7-0.5c-0.2-0.2-0.3-0.4-0.3-0.7
		c-0.1-0.4-0.1-0.9-0.1-1.6V28.2z"/>
	<path class="st0" d="M197,34.4h-1.3l-0.5-1.4h-2.5l-0.5,1.4h-1.3l2.4-6.1h1.3L197,34.4z M194.7,31.9l-0.8-2.3l-0.8,2.3H194.7z"/>
	<path class="st0" d="M198,34.4v-5.1h-1.8v-1h4.9v1h-1.8v5.1H198z"/>
	<path class="st0" d="M201.4,34.4v-6.1h4.5v1h-3.3v1.4h3.1v1h-3.1v1.7h3.4v1H201.4z"/>
</g>
<g>
	<path class="st0" d="M209.6,32.4l1.2-0.1c0.1,0.4,0.2,0.7,0.4,0.9c0.2,0.2,0.5,0.3,0.9,0.3c0.4,0,0.7-0.1,0.9-0.3
		c0.2-0.2,0.3-0.4,0.3-0.6c0-0.1,0-0.3-0.1-0.4c-0.1-0.1-0.2-0.2-0.4-0.3c-0.1-0.1-0.5-0.1-1-0.3c-0.7-0.2-1.1-0.4-1.4-0.6
		c-0.4-0.3-0.6-0.7-0.6-1.2c0-0.3,0.1-0.6,0.3-0.9c0.2-0.3,0.4-0.5,0.8-0.6c0.3-0.1,0.7-0.2,1.2-0.2c0.8,0,1.3,0.2,1.7,0.5
		c0.4,0.3,0.6,0.8,0.6,1.4l-1.2,0.1c-0.1-0.3-0.2-0.5-0.3-0.7c-0.2-0.1-0.4-0.2-0.8-0.2c-0.4,0-0.6,0.1-0.8,0.2
		c-0.1,0.1-0.2,0.2-0.2,0.4c0,0.1,0.1,0.3,0.2,0.4c0.2,0.1,0.5,0.3,1.1,0.4c0.6,0.1,1,0.3,1.3,0.4c0.3,0.2,0.5,0.4,0.7,0.6
		c0.2,0.3,0.2,0.6,0.2,1c0,0.4-0.1,0.7-0.3,1c-0.2,0.3-0.5,0.5-0.8,0.7c-0.4,0.1-0.8,0.2-1.3,0.2c-0.8,0-1.4-0.2-1.8-0.5
		C210,33.6,209.7,33,209.6,32.4z"/>
	<path class="st0" d="M219.2,32.1l1.2,0.4c-0.2,0.7-0.5,1.2-0.9,1.5c-0.4,0.3-1,0.5-1.6,0.5c-0.8,0-1.5-0.3-2-0.8
		c-0.5-0.6-0.8-1.3-0.8-2.3c0-1,0.3-1.8,0.8-2.4c0.5-0.6,1.2-0.8,2.1-0.8c0.8,0,1.4,0.2,1.8,0.7c0.3,0.3,0.5,0.6,0.6,1.1l-1.2,0.3
		c-0.1-0.3-0.2-0.6-0.5-0.8c-0.2-0.2-0.5-0.3-0.8-0.3c-0.5,0-0.8,0.2-1.1,0.5c-0.3,0.3-0.4,0.9-0.4,1.6c0,0.8,0.1,1.3,0.4,1.7
		c0.3,0.3,0.6,0.5,1.1,0.5c0.3,0,0.6-0.1,0.8-0.3C218.9,32.9,219.1,32.6,219.2,32.1z"/>
	<path class="st0" d="M221,34.4v-6.1h1.2v2.4h2.4v-2.4h1.2v6.1h-1.2v-2.7h-2.4v2.7H221z"/>
	<path class="st0" d="M226.5,31.3c0-0.6,0.1-1.1,0.3-1.6c0.1-0.3,0.3-0.6,0.5-0.8c0.2-0.2,0.5-0.4,0.7-0.6c0.3-0.2,0.7-0.2,1.2-0.2
		c0.8,0,1.5,0.3,2,0.8c0.5,0.6,0.7,1.3,0.7,2.3c0,1-0.2,1.8-0.7,2.3c-0.5,0.6-1.1,0.8-1.9,0.8c-0.8,0-1.5-0.3-2-0.8
		C226.7,33.1,226.5,32.3,226.5,31.3z M227.6,31.3c0,0.7,0.1,1.2,0.4,1.6c0.3,0.4,0.7,0.5,1.1,0.5c0.4,0,0.8-0.2,1.1-0.5
		c0.3-0.4,0.4-0.9,0.4-1.6c0-0.7-0.1-1.2-0.4-1.6c-0.3-0.3-0.6-0.5-1.1-0.5c-0.5,0-0.8,0.2-1.1,0.5
		C227.8,30.1,227.6,30.6,227.6,31.3z"/>
	<path class="st0" d="M232.1,31.3c0-0.6,0.1-1.1,0.3-1.6c0.1-0.3,0.3-0.6,0.5-0.8c0.2-0.2,0.5-0.4,0.7-0.6c0.3-0.2,0.7-0.2,1.2-0.2
		c0.8,0,1.5,0.3,2,0.8c0.5,0.6,0.7,1.3,0.7,2.3c0,1-0.2,1.8-0.7,2.3c-0.5,0.6-1.1,0.8-1.9,0.8c-0.8,0-1.5-0.3-2-0.8
		C232.3,33.1,232.1,32.3,232.1,31.3z M233.2,31.3c0,0.7,0.1,1.2,0.4,1.6c0.3,0.4,0.7,0.5,1.1,0.5c0.4,0,0.8-0.2,1.1-0.5
		c0.3-0.4,0.4-0.9,0.4-1.6c0-0.7-0.1-1.2-0.4-1.6c-0.3-0.3-0.6-0.5-1.1-0.5c-0.5,0-0.8,0.2-1.1,0.5
		C233.4,30.1,233.2,30.6,233.2,31.3z"/>
	<path class="st0" d="M238,34.4v-6.1h1.2v5.1h3.1v1H238z"/>
</g>
</svg>
